<svg xmlns="http://www.w3.org/2000/svg" viewBox="0 0 496.94 220">
    <g fill="white">
        <path d="M2.12,80h9.6a1.8,1.8,0,0,0,2-2V55.9l3.7-7.1L30,78.5a2.21,2.21,0,0,0,2.3,1.5h10.6c1.6,0,2.2-1,1.5-2.3L26.33,37.3l17-34.9C44,1,43.43,0,41.93,0H31.43a2.38,2.38,0,0,0-2.3,1.5L13.72,33V2a1.8,1.8,0,0,0-2-2H2.12a1.8,1.8,0,0,0-2,2V78A1.8,1.8,0,0,0,2.12,80Z"/>
        <path d="M72.32,78.41V53.2h6.9l6.7,25.4a1.57,1.57,0,0,0,1.7,1.4H98c1.1,0,1.7-.6,1.4-1.8L92.53,52c4.8-2.1,7.3-6.5,7.3-13.2V14.4c0-9.4-5-14.4-14.4-14.4H60.32a1.47,1.47,0,0,0-1.6,1.6v76.8a1.47,1.47,0,0,0,1.6,1.6h10.4A1.47,1.47,0,0,0,72.32,78.41Zm0-65.2h9.9c2.6,0,4,1.4,4,4V36c0,2.6-1.4,4-4,4h-9.9Z"/>
        <path d="M147.82,78.61a1.54,1.54,0,0,0,1.6,1.4H160c1.2,0,1.6-.6,1.4-1.7L144.82,1.4a1.56,1.56,0,0,0-1.7-1.4h-13.9a1.56,1.56,0,0,0-1.7,1.4l-16.6,76.9c-.3,1.1.2,1.7,1.3,1.7h10.7a1.54,1.54,0,0,0,1.6-1.4l2.7-14.6H145Zm-18.1-26.2,6.4-34.9,6.4,34.9Z"/>
        <path d="M198,0h-11.2c-9.3,0-14.4,5-14.4,14.4V38a3.57,3.57,0,0,0,2.7,3.7l23.7,7.8V62.8c0,2.7-1.4,4-4,4H190c-2.5,0-4-1.3-4-4V55.1c0-1.1-.5-1.6-1.6-1.6H174a1.43,1.43,0,0,0-1.6,1.6V65.6c0,9.4,5.1,14.4,14.4,14.4H198c9.4,0,14.4-5,14.4-14.4V42.5a3.67,3.67,0,0,0-2.6-3.7L186,31V17.2a3.63,3.63,0,0,1,4-4h4.8c2.7,0,4,1.4,4,4V25a1.47,1.47,0,0,0,1.6,1.6h10.4a1.43,1.43,0,0,0,1.6-1.6V14.4C212.42,5,207.42,0,198,0Z"/>
        <path d="M258.62,80h9.9a1.47,1.47,0,0,0,1.6-1.6V1.6a1.47,1.47,0,0,0-1.6-1.6h-10.4a1.43,1.43,0,0,0-1.6,1.6V43.8h-.6L240.72,1.3a1.72,1.72,0,0,0-1.8-1.3H229a1.47,1.47,0,0,0-1.6,1.6v76.8A1.47,1.47,0,0,0,229,80h10.4a1.43,1.43,0,0,0,1.6-1.6V36h.5l15.3,42.7A1.72,1.72,0,0,0,258.62,80Z"/>
        <path d="M325.12,65.6V14.4c0-9.4-5-14.4-14.4-14.4h-11.2c-9.4,0-14.4,5-14.4,14.4V65.6c0,9.4,5,14.4,14.4,14.4h11.2C320.12,80,325.12,75,325.12,65.6Zm-22.7,1.5c-2.6,0-4-1.3-4-4V16.9c0-2.6,1.4-4,4-4h5.8c2.6,0,4,1.4,4,4V63.1c0,2.7-1.4,4-4,4Z"/>
        <path d="M341.72,80h24c9.4,0,14.4-5,14.4-14.4V14.5c0-9.4-5-14.5-14.4-14.5h-24a1.43,1.43,0,0,0-1.6,1.6v76.8A1.39,1.39,0,0,0,341.72,80Zm12-66.8h9.2c2.6,0,4,1.4,4,4.1V62.8c0,2.7-1.4,4-4,4h-9.2Z"/>
        <path d="M425.12,1.4a1.56,1.56,0,0,0-1.7-1.4h-13.9a1.56,1.56,0,0,0-1.7,1.4l-16.6,76.9c-.3,1.1.2,1.7,1.3,1.7h10.7a1.54,1.54,0,0,0,1.6-1.4l2.7-14.6h17.8l2.8,14.6a1.54,1.54,0,0,0,1.6,1.4h10.6c1.2,0,1.6-.6,1.4-1.7ZM410,52.4l6.4-34.9,6.4,34.9Z"/>
        <path d="M457.32,80h10.4a1.47,1.47,0,0,0,1.6-1.6V53.2h6.9l6.7,25.4a1.57,1.57,0,0,0,1.7,1.4H495c1.1,0,1.7-.6,1.4-1.8L489.52,52c4.8-2.1,7.3-6.5,7.3-13.2V14.4c0-9.4-5-14.4-14.4-14.4h-25.1a1.47,1.47,0,0,0-1.6,1.6v76.8A1.47,1.47,0,0,0,457.32,80Zm12-66.8h9.9c2.6,0,4,1.4,4,4V36c0,2.6-1.4,4-4,4h-9.9Z"/>
        <path d="M34.82,111.2H2.18A1.94,1.94,0,0,0,0,113.38V217.83A1.89,1.89,0,0,0,2.18,220H34.82c12.78,0,19.58-6.8,19.58-19.58v-69.5C54.4,118.14,47.6,111.2,34.82,111.2Zm1.63,85.41c0,3.67-1.9,5.44-5.44,5.44H18.5v-72.9H31c3.54,0,5.44,1.9,5.44,5.58Z"/>
        <path d="M120.09,111.2H70a2,2,0,0,0-2,2.18V217.83A2,2,0,0,0,70,220h50c1.63,0,2.18-.82,2.18-2.18v-13.6c0-1.5-.54-2.18-2.18-2.18h-34V174.58h26a2,2,0,0,0,2.18-2.31V158.8a2,2,0,0,0-2.18-2.31h-26v-27.2h34c1.63,0,2.18-1,2.18-2.31v-13.6C122.26,112,121.72,111.2,120.09,111.2Z"/>
        <path d="M196.25,111.2H183.33a2.83,2.83,0,0,0-3,2.45l-14.42,72.9-14.28-72.9a2.82,2.82,0,0,0-3-2.45H135.73c-2,0-2.86,1.09-2.45,3l22.85,103.36a2.83,2.83,0,0,0,3,2.45h13.6a2.82,2.82,0,0,0,3-2.45l23-103.36C199.1,112.29,198.29,111.2,196.25,111.2Z"/>
        <path d="M278.53,111.2H245.89a1.94,1.94,0,0,0-2.18,2.18V217.83a1.89,1.89,0,0,0,2.18,2.18h32.64c12.78,0,19.58-6.8,19.58-19.58v-69.5C298.11,118.14,291.31,111.2,278.53,111.2Zm1.63,85.41c0,3.67-1.9,5.44-5.44,5.44H262.21v-72.9h12.51c3.54,0,5.44,1.9,5.44,5.58Z"/>
        <path d="M352.51,113.11a2.12,2.12,0,0,0-2.31-1.9H331.3a2.12,2.12,0,0,0-2.31,1.9L306.41,217.69c-.41,1.5.27,2.31,1.77,2.31h14.55a2.09,2.09,0,0,0,2.18-1.9l3.67-19.86h24.21l3.81,19.86a2.09,2.09,0,0,0,2.18,1.9h14.42c1.63,0,2.18-.82,1.9-2.31ZM332,182.47l8.7-47.46,8.7,47.46Z"/>
        <path d="M433.3,111.2H419.7a3,3,0,0,0-3.13,2.18l-15.23,39-15.23-39A3,3,0,0,0,383,111.2h-13.6c-2,0-3,1.22-2.18,3.13l24.89,60.52v42.43a2.44,2.44,0,0,0,2.72,2.72h13.06a2.44,2.44,0,0,0,2.72-2.72V174.85l24.89-60.52C436.29,112.43,435.34,111.2,433.3,111.2Z"/>
        <path d="M480.62,147.38h14.14a1.94,1.94,0,0,0,2.18-2.18V130.79c0-12.78-6.8-19.58-19.58-19.58H462.13c-12.65,0-19.58,6.8-19.58,19.58v32.1a4.85,4.85,0,0,0,3.67,5l32.23,10.61v18.09c0,3.67-1.9,5.44-5.44,5.44h-6.53c-3.4,0-5.44-1.77-5.44-5.44V186.14a1.89,1.89,0,0,0-2.18-2.18H444.72a1.94,1.94,0,0,0-2.18,2.18v14.28c0,12.78,6.94,19.58,19.58,19.58h15.23c12.78,0,19.58-6.8,19.58-19.58V169c0-2.58-1.22-4.08-3.54-5L461,153.36V134.6c0-3.54,2-5.44,5.44-5.44H473c3.67,0,5.44,1.9,5.44,5.44V145.2A2,2,0,0,0,480.62,147.38Z"/>
    </g>
</svg>