<?xml version="1.0" encoding="utf-8"?>
<!-- Generator: Adobe Illustrator 21.1.0, SVG Export Plug-In . SVG Version: 6.00 Build 0)  -->
<svg version="1.1" id="Layer_1" xmlns="http://www.w3.org/2000/svg" xmlns:xlink="http://www.w3.org/1999/xlink" x="0px" y="0px"
	 viewBox="0 0 322 138.1" style="enable-background:new 0 0 322 138.1;" xml:space="preserve">
<style type="text/css">
	.st0{fill:#7D4900;}
	.st1{fill:#FFFFFF;}
	.st2{fill:#F6921E;}
</style>
<g>
	<g>
		<path class="st0" d="M111.3,80.3C107.8,88.6,100.6,94.8,92,98c6.6,2.4,10.9,8.6,11.7,10.4c4.3-1.9,8.5-8.5,11.9-16.3
			c0.5-2,4.5-4.3,5.8,0.1c0.9-2.4,8-2.3,6.4,3.5c-3,11.5-16.8,25.3-33.2,29.7c-3,1.1-8.8-1.5-6.6-3.7c1.1-0.9,4.7-3.6,6.2-5.2
			c1.7-4.7-6.2-14.4-13.1-15.6c-8.6,1.2-17.4-1.3-23.9-5c-2.5,2.7-15.6,13.3-29.5,9.4c-2.2,0.8-5.2,10.4-5.2,17.5c0.3,2.8-4.7,6-6,3
			c-1.7,4.1-9.8,3.2-8.9,0.4C8,106.1,24.5,91.1,26.3,89.4c3.2-2.4,8.9-0.8,7.6,1.2c-0.6,1.9-2,3.7-1.6,4.7
			c4.6,2.4,14.5-0.9,16.5-3.5c-13.8-17.3-7-34.6,10.1-41.3c-1.5-4.9-2.3-10.1-2.5-14c0.1-1.2,1.3-2.3,2.8-2.2
			c9,0.6,21.6,3.5,32.1,13.2c11.2,0.2,6.7-13.8,5.8-21.5c-5.8,1.4-9-5.3-2.1-9.2c-5.7-0.6-3.9-7.6,3.9-7.7c-1.6-4.4,2.5-6.3,5.7-5.3
			c0.2-3.2,4.6-4.1,7.4-2.4c3.1-2.5,8.1-1.9,10.4,3c5.1,1.2,9,10.5,13.3,10.3c6.1-0.1,10.4-1.4,15.5-1.5c3.6,0,7.7,1.3,10.7,4.1
			c5.9,5.4,5.4,13.3,4.7,18.5c-0.5,3-7,3.8-8.3,0.4c-0.6-0.9-0.9-3-4.9-3.7c-1.9-0.2-5.4-0.3-9.7,0c2.1,2.8,4.2,12.8,2.5,13.2
			c-3.8,0.5-5.9-5.3-16.4-8.1c-12.2-4-13.2,0.2-12.2,7.5c0.5,2.9,1,6.3,1.1,9.8c13.3,6.2,26.1,7.3,40.4,1.4c1-0.4,1.5-0.3,1.6,0.4
			c0.3,2.9-1.5,7.2-4.9,9.1c-0.7,3.8-4.6,8.8-9.5,10.5c-7.9,9-24.8,9.2-34.7,3.6C111.6,80.1,111.5,80.2,111.3,80.3"/>
		<path class="st0" d="M249.7,67.4c0.4-0.4,0.8-0.8,1.2-1.1c0.8-0.7,1.6-1.4,2.5-2.1c4.5-3.4,9.8-5.6,15.9-5.7
			c4.2-0.1,7.4,0.7,9.8,2.2c2,1.2,3.4,2.8,4.4,4.7c0.3-0.3,0.7-0.6,1-0.9c1.9-1.6,4.1-2.9,6.5-4l0,0l0,0l0,0
			c0.2-0.1,0.4-0.2,0.6-0.3c0.1,0,0.4-0.1,0.6-0.2l0,0c1-0.4,2.1-0.7,3.2-1l0,0l0,0l0,0c0.4-0.1,0.8-0.2,1.1-0.3
			c0.3-0.1,0.7-0.1,1.1-0.2c1.6-0.3,3.3-0.5,5-0.5l0,0h1.1l0,0l0,0l0,0c1.1,0,2.1,0.1,3.1,0.2c0.3,0,0.4,0.1,0.5,0.1
			c0.8,0.1,1.6,0.3,2.4,0.5l0,0l0,0l0,0c0.5,0.1,1,0.3,1.6,0.5c0.5,0.2,1,0.4,1.5,0.6c2.4,1.1,4.5,2.8,6,4.8l0,0l0,0l0,0
			c0.3,0.4,0.6,0.8,0.8,1.2c0.3,0.4,0.5,0.8,0.7,1.3l0,0c1.1,2.3,1.7,4.8,1.7,7.6l0,0l0,0c0,0.9-0.1,1.8-0.2,2.8
			c0,0.1,0,0.3-0.1,0.5c-0.1,0.8-0.3,1.6-0.5,2.4l0,0l0,0l0,0c-0.3,1.1-0.7,2.1-1.1,3.2c-0.4,1-0.9,2-1.5,3
			c-2.9,4.9-7.4,8.7-12.7,10.9l0,0l0,0c-0.2,0.1-0.4,0.2-0.6,0.2c-0.2,0.1-0.4,0.2-0.6,0.2c-1,0.4-2.1,0.7-3.2,1l0,0l0,0l0,0
			c-0.3,0.1-0.6,0.2-1,0.2c-0.3,0.1-0.7,0.1-1,0.2c-1.3,0.2-2.7,0.4-4.1,0.4l0,0h-1.1l0,0l0,0l0,0c-1.1,0-2.2-0.1-3.3-0.2l0,0
			c-0.3,0-0.4-0.1-0.5-0.1c-0.9-0.1-1.7-0.3-2.5-0.5l0,0l0,0l0,0c-0.3-0.1-0.6-0.2-0.9-0.3c-0.2-0.1-0.5-0.2-0.9-0.3
			c-1.2-0.4-2.3-1-3.3-1.5c-0.2,0.2-0.5,0.4-0.7,0.5c-0.5,0.3-1,0.6-1.6,0.9c-1,0.4-2.1,0.7-3.2,0.9c-0.6,0.1-1.2,0.2-1.9,0.2
			c0.6,1.3,0.9,2.7,0.9,4.2l0,0l0,0c0,0.5,0,1-0.1,1.4l0,0v0.2l0,0c-0.1,0.4-0.1,0.8-0.2,1.3l-1.8,7.7l0,0l0,0l0,0
			c-0.1,0.5-0.3,1-0.5,1.5s-0.4,0.9-0.7,1.4c-1.4,2.2-3.5,3.8-5.9,4.6l0,0l0,0l-0.2,0.1l0,0l-0.2,0.1l0,0c-0.4,0.1-0.8,0.2-1.3,0.3
			l0,0l0,0l0,0c-0.2,0-0.3,0.1-0.4,0.1c-0.1,0-0.2,0-0.4,0.1c-0.4,0.1-0.7,0.1-1.1,0.1v0.1h-1.1l0,0h-0.4l0,0l0,0
			c-0.9,0-1.8-0.1-2.6-0.3c-0.1,0-0.3-0.1-0.4-0.1c-0.5-0.1-1-0.3-1.5-0.6c-0.5,0.2-1.1,0.4-1.8,0.5c-0.9,0.2-1.8,0.3-2.9,0.3h-0.7
			l0,0l0,0c-0.6,0-1.2,0-1.7-0.1l0,0h-0.2l0,0c-0.2,0-0.3,0-0.5-0.1c-0.1,0.1-0.2,0.2-0.2,0.3l-0.1,0.1l0,0
			c-0.2,0.3-0.5,0.6-0.7,0.9c-0.3,0.3-0.6,0.6-0.9,0.9c-1.7,1.4-4,2.5-6.9,2.5h-0.1h-0.1l0,0c-0.1,0-0.2,0-0.3,0s-0.2,0-0.3,0
			c-0.4,0-0.9-0.1-1.3-0.2l0,0l0,0l0,0c-0.3-0.1-0.7-0.2-0.9-0.3c-0.3-0.1-0.6-0.3-0.9-0.4c-1.4-0.8-2.5-1.9-3.1-3.3l0,0l0,0l0,0
			c-0.1-0.1-0.1-0.2-0.1-0.3c0,0-0.1-0.1-0.1-0.2c-0.1-0.2-0.1-0.3-0.2-0.5h-0.1l0,0h-0.2h-3.4h-2.1h-1.1v-0.1c-0.1,0-0.3,0-0.4,0
			c-0.5,0-1.1-0.1-1.5-0.3v0.1l0,0c-0.2,0.3-0.3,0.6-0.6,0.9l0,0l0,0l0,0c-0.2,0.3-0.5,0.7-0.7,1c-0.3,0.3-0.5,0.6-0.9,0.9
			c-1.6,1.5-3.8,2.5-6.9,2.5h-0.1h-0.1l0,0c-0.1,0-0.2,0-0.3,0s-0.2,0-0.3,0c-0.4,0-0.9-0.1-1.3-0.2l0,0l0,0l0,0
			c-0.3-0.1-0.6-0.2-0.9-0.3c-0.3-0.1-0.6-0.2-0.9-0.4c-1.4-0.8-2.5-1.9-3.2-3.3l0,0c-0.1-0.1-0.1-0.2-0.1-0.2s-0.1-0.1-0.1-0.2
			c-0.1-0.1-0.1-0.3-0.2-0.4h-0.3h-0.2h-3.4h-2.1h-1.1v-0.1c-0.1,0-0.2,0-0.3,0c-0.4,0-0.7-0.1-1.1-0.1c-1.5-0.3-2.9-0.8-4.2-1.7
			h-0.1c-0.3,0.2-0.6,0.4-0.9,0.5c-1.6,0.8-3.5,1.4-5.8,1.4h-1.1v-0.1c-0.8-0.1-1.6-0.2-2.4-0.5c-0.2,0-0.4-0.1-0.6-0.2
			c-0.7-0.3-1.3-0.6-1.9-1c-0.1,0.1-0.2,0.1-0.3,0.2c-0.4,0.2-0.8,0.4-1.1,0.6c-0.2,0.1-0.5,0.3-0.8,0.4s-0.7,0.2-1,0.3
			c-1.8,0.5-4.3,0.6-6.9-0.1l0,0c-0.2,0-0.4-0.1-0.6-0.2l0,0c-0.1-0.1-0.3-0.1-0.5-0.2c-0.6-0.3-1.2-0.6-1.6-0.9l-0.1,0.1
			c-0.3,0.1-0.6,0.3-0.9,0.4c-1.6,0.7-3.3,1.2-5.1,1.2l0,0l0,0c-0.6,0-1.3,0-1.9-0.1l0,0l-0.3-0.1c-0.5-0.1-1-0.2-1.5-0.4l0,0l0,0
			l0,0c-0.2-0.1-0.4-0.1-0.5-0.2c-0.1,0-0.3-0.1-0.5-0.2l0,0c-0.5-0.2-1-0.5-1.5-0.8l-0.2,0.1c-0.3,0.2-0.6,0.4-0.9,0.5
			c-1,0.5-2,0.8-2.9,0.9s-1.8,0.2-2.6,0.1l0,0l0,0c-0.2,0-0.3,0-0.4,0s-0.2,0-0.4,0c-0.8-0.1-1.6-0.2-2.5-0.4l0,0
			c-0.2,0-0.3-0.1-0.5-0.2s-0.4-0.1-0.5-0.2l0,0c-0.9-0.4-1.8-0.9-2.6-1.6l0,0l0,0l0,0c-0.2-0.2-0.4-0.4-0.6-0.6l0,0
			c-0.2-0.2-0.4-0.4-0.6-0.7c-0.9-1.2-1.4-2.7-1.3-4.5l0,0v-0.1l0,0c0-0.1,0-0.2,0-0.3l0,0c0-0.1,0-0.2,0-0.3l0,0
			c0-0.5,0.1-0.9,0.3-1.3l0,0l0,0l0,0l0,0l0,0c0.4-1.3,0.7-2.3,0.9-3.2c0.4-1.4,0.5-1.8,0.6-2.3l0,0l0,0l0,0
			c0.7-2.4,1.3-4.7,1.5-5.5v-0.1v-0.1l0,0l0.4-1.1h0.1c0.1-0.2,0.2-0.4,0.3-0.6l0,0l0.1-0.2l0,0l0.1-0.2c0.2-0.4,0.5-0.8,0.8-1.1
			l0,0l0,0c0.3-0.3,0.6-0.6,0.9-0.9s0.7-0.6,1.1-0.9c1.9-1.4,4.7-2.5,8.3-2.5h6.9c-0.2-0.8-0.3-1.6-0.3-2.4l0,0v-0.1l0,0
			c0-0.2,0-0.4,0-0.5c0-0.2,0-0.4,0.1-0.5c0.1-0.9,0.4-1.7,0.8-2.6l0,0c0.1-0.3,0.3-0.6,0.5-0.9s0.4-0.6,0.6-0.9
			c1-1.3,2.3-2.4,4-3.1c0.7-1.4,1.5-2.9,2.4-4.3c1-1.5,2-3.1,3.1-4.5c5.8-7.6,13.9-13.7,23.4-14.3l0,0c4.2-0.1,7.5,0.7,9.9,2.2
			c2,1.2,3.4,2.8,4.4,4.7c0.3-0.3,0.6-0.6,1-0.9c2-1.6,4.2-3,6.6-4l0,0l0,0l0,0c0.2-0.1,0.4-0.2,0.6-0.3c0.1,0,0.4-0.1,0.6-0.2l0,0
			c1-0.4,2.1-0.7,3.2-1l0,0l0,0l0,0c0.4-0.1,0.8-0.2,1.1-0.3c0.3-0.1,0.7-0.1,1.1-0.2c1.6-0.3,3.3-0.5,5-0.5l0,0h1.1l0,0l0,0l0,0
			c1.1,0,2.1,0.1,3.1,0.2c0.3,0,0.4,0.1,0.5,0.1c0.8,0.1,1.6,0.3,2.4,0.5l0,0l0,0l0,0c0.5,0.1,1,0.3,1.6,0.5c0.5,0.2,1,0.4,1.5,0.6
			c2.4,1.1,4.5,2.8,6,4.8l0,0l0,0l0,0c0.1,0.2,0.3,0.4,0.4,0.6c0.1,0.2,0.2,0.4,0.4,0.6l0,0C249.1,66.3,249.4,66.8,249.7,67.4"/>
		<path class="st0" d="M28.2,72.9c0.6-1.6,1.8-3.1,5-4.3c-1.8-0.4-5.7-0.7-7.5-2.9c1.4-1.1,2.7-2,5.8-3.3c-1.4-0.2-3.8-0.6-6.9-2.7
			c9.8-6.9,27.8-8.3,37.3-6.3c-5,13.6-14.4,22.7-21.8,21.2C35.3,76.7,32.8,75.3,28.2,72.9"/>
		<path class="st1" d="M116.2,73.8c7.9,6.2,17.6,6,25.4,1.9c-5.2,0.5-11-0.2-16.4-3.4c5.8,3,22.1,4.2,24.8-4.4
			c-4.8,2.4-11.4,3.3-21.7,0.7c7.2,0.8,22.7,0.6,27.5-7.6c-4.3,1.9-13.3,4.6-21.7,4c-5.7-0.4-11-2.2-15.2-4.2
			C118.6,65.4,117.8,70,116.2,73.8"/>
		<path class="st2" d="M135.2,65.6c-0.2,1.4-0.7,2.1-1.4,3.3c-2.1,0-4-0.1-5.5-0.3c1.8,0.4,3.5,0.8,5,1c-1.1,1.5-2.7,2.8-4.7,3.9
			c-1.3-0.3-2.5-0.8-3.5-1.3c1,0.6,2,1.1,3,1.5c-2.4,1.2-5.2,2.1-8.3,2.4c-1.3-0.7-2.5-1.5-3.7-2.4c1.5-3.5,2.3-7.6,2.6-11.8
			C123.8,64.3,129.6,65.4,135.2,65.6"/>
		<path class="st1" d="M118.9,6.5c-0.1-0.7-1-3.1-2.5-2.7C114.6,4.2,118.3,6.2,118.9,6.5"/>
		<path class="st1" d="M145.9,17.2c1.3-0.2,4.3-0.6,6.1-0.6c7.8,0.1,11.9,8.9,11.6,15.2c-0.1,1.3-1.8,1.3-2.3,0.1
			c-2.1-3.8-5-4.3-9.6-4.6c-3.4-0.2-7.5,0.1-11.2,0.2c-0.7,0-0.9-0.4-0.8-0.8C140.4,23.7,143.1,17.7,145.9,17.2"/>
		<path class="st1" d="M107.3,17c0.9-4.1,3.3-8.1,9-8.7c-0.7,0.5-1.9,3.3-1.8,4.1c2.1-4.8,8.5-5.9,9.8-1.5c0,0,4.4,4.5,5.4,5.4
			c0.3,0.2,0.7,0.5,0.5,0.7c-0.3,0.3-2-0.4-2-0.1c0,0.9,3.4,1.8,9.3,1.4c1.8-0.1,3.9-0.1,6.3-0.6c-3.3,2.1-5.6,7.1-6,9.1
			c-0.1,0.5-1.1,1-1.4,1c-10,0.8-17.3,1.8-21.3-5.7c-0.4-0.6-0.1-1.3,0.3-1.4c0.9-0.5,1.9-0.5,3.3,0c-3-2.5-9.6-0.6-5.3,4.7
			c-0.3-0.8-0.5-1.8-0.3-2.6c2.2,4.2,10.1,7.3,16.3,8.6c8.5,1.9,11.8,5.9,11.5,6.8c-0.3,0.3-0.6-0.2-0.8-0.3
			C132.5,30.9,103.5,33.9,107.3,17"/>
		<path class="st0" d="M120.1,10.6c-0.4,0.1-0.7,0.5-0.9,0.9c0.5-0.2,1.2,0.4,1.5,1c0.4,0.6,0.4,1.4,0,1.7c-0.4,0.3-1.1,0-1.6-0.8
			c0.1,0.4,0.3,0.9,0.5,1.3c1,1.9,2.7,3.1,3.9,2.7c1.2-0.4,1.5-2.3,0.5-4.2C123.1,11.4,121.3,10.2,120.1,10.6"/>
		<path class="st0" d="M58.6,132.3c-25.7,0-46.6,1.3-46.6,2.9s20.9,2.9,46.6,2.9s46.6-1.3,46.6-2.9S84.3,132.3,58.6,132.3"/>
		<polygon class="st0" points="98.2,60.7 100.6,67.8 75,109.5 33.3,83.5 32.9,78.7 57.3,37.9 58.4,37.5 		"/>
		<path class="st1" d="M79.3,52.9l16.4,9.6L72,100.3l-35.9-22l21.2-35.1c1.2,6.8,3.6,14.7,8.6,18.9c0.9,3.9,3.5,6,6.1,6.7
			c0.6,2,1.8,5,3.5,4.7C78.7,68.8,80.6,58.9,79.3,52.9"/>
		<polygon class="st1" points="73.2,72 0,73.6 72.1,69.7 		"/>
		<polygon class="st0" points="75.3,73.5 1.3,74.1 76.2,71.1 		"/>
		<polygon class="st0" points="86.7,80.1 36.2,79.6 86.8,78.2 		"/>
		<polygon class="st1" points="86.3,77.8 11.8,76.8 88.3,74.8 		"/>
		<polygon class="st0" points="88.2,76.5 13.3,76.2 88.3,74.6 		"/>
		<path class="st2" d="M144.4,18.5c1.5-0.3,4.8-0.6,6.7-0.6c7,0.1,11.3,6.5,12.5,12.7c0,0.4,0,0.9,0,1.3c-0.1,1.3-1.8,1.3-2.3,0.1
			c-2.1-3.8-5-4.3-9.6-4.6c-3.4-0.2-7.5,0.1-11.2,0.2c-0.7,0-0.9-0.4-0.8-0.8c0.5-2.2,2-5.8,3.8-8C143.8,18.7,144.1,18.6,144.4,18.5
			"/>
		<path class="st2" d="M101.4,75.7c-1.4,0-3.7-0.7-4.6-1.1c5.5-2.4,10.1-5.8,11.8-14.8C108.4,65,108,71.7,101.4,75.7 M91.3,52.8
			c-8.2-9.7-19.9-12.4-25-13.4c7.5,2.2,14.1,6.1,17.9,12.7c-0.3,0-0.5,0-0.8,0l14.7,8.6l2.4,7L85.9,91.4c5.1-2,10.4-6.7,13.8-12.8
			c-0.1,0.6-2.3,7.6-7.1,12.2c4.3-2.7,8.4-7.6,11.2-13c0,0-0.7,3.6-2.8,7.5c2.7-2.6,4.7-5.6,5.4-9c-1.5-0.1-3.7-0.3-4.6-0.5
			c4.8-1.6,11.8-10.6,11-22.9c1,6.1,1.2,13.5-1.5,18.9c4.7-6.4,5.1-16.9,2-27.1c-2-6.6-5.5-13-6.7-20c-2.4-7.1,0.8-15,5.8-16.8
			c-0.1-0.1-6.9-3.2-8.9-0.3c-1,1.4,0.9,2.5,2.5,2.9c-2.5-0.2-9.6,1-9.9,3.1c-0.2,1.9,4.2,1.9,6,1.4c-1.5,0.5-8,4.1-7.3,7.1
			c0.2,1.1,4.5,0.2,6.6-2c-2.2,10.4,8.7,29-8.8,32l2.4,4.3L91.3,52.8z"/>
		<polygon class="st0" points="84.2,83 53,82.7 84.3,81.8 		"/>
		<path class="st2" d="M222.4,77.7c0.7-2.6,3.1-5,5.8-5c3.3,0,3.9,2.3,3.2,4.9c-0.8,2.8-2.5,4.6-5.6,4.6
			C222.9,82.3,221.7,80.5,222.4,77.7 M209.3,78.1c-2.4,8.7,3.9,14.9,13.5,14.9c10.1,0,19.2-6.2,21.7-15.5
			c2.4-8.8-2.5-15.6-12.4-15.6C221,61.9,212.1,68,209.3,78.1z"/>
		<path class="st2" d="M189.7,84.6c1.6-2,2.9-6.3,3.1-9.6c0.1-1.6-1.4-1.7-2.9,0c-3.1,3.5-4.8,6.8-6,9.8
			C186.1,84.8,187.5,84.7,189.7,84.6 M170.7,92.6c-5.5,0-4.8-7.7,0.8-7.7c4.5-8.9,13.4-21.3,25.1-22.4c13.8-0.2,11.2,12.3,7.6,21.4
			c3.1,0,4.8,2.6,4.2,5.2c-0.9,3-3.7,3.6-6.8,3.6C190.9,92.6,181.4,92.6,170.7,92.6z"/>
		<path class="st2" d="M295.1,77.7c0.7-2.6,3.1-5,5.8-5c3.3,0,3.9,2.3,3.2,4.9c-0.8,2.8-2.5,4.6-5.6,4.6
			C295.5,82.3,294.4,80.5,295.1,77.7 M282,78.1c-2.4,8.7,3.9,14.9,13.4,14.9c10.1,0,19.2-6.2,21.7-15.5c2.4-8.8-2.5-15.6-12.4-15.6
			C293.7,61.9,284.7,68,282,78.1z"/>
		<path class="st1" d="M186.5,114.8c-3.4,0-3.9-2.2-3.4-3.4l1.8-5.2c-2.1,2.2-3.5,4.1-5.6,6.3c-1.6,1.7-2.7,2.3-5.5,2.3
			c-4,0-4-2.3-3.5-3.6c1.4-3.9,2.7-7.5,4.1-11.4c0.5-1.3,2.5-3.2,5.6-3.1c2.8,0,3.5,2,2.9,3.3l-2.1,5.7c2.3-2.4,4.1-4.4,6.2-7
			c1.3-1.5,3.5-2.2,6.3-2c1.6,0,4.7,0.8,3.8,3.5c-1.4,3.8-2.7,7.2-4.1,11.1C192.4,112.5,190,114.8,186.5,114.8"/>
		<path class="st1" d="M161.4,114.8c-2.9,0-4.6-1.6-3.8-3.7c1.3-3.1,2.3-6.3,3.4-9.4c-0.6-0.2-2.5-0.2-3.3,0
			c-1.2,3.2-2.3,6.4-3.5,9.6c-1.2,3.3-3.5,3.6-5.3,3.5c-1.6-0.1-5-0.7-4-3.3c1.3-3.6,2.7-7.4,4-11c0.6-1.6,2.8-3.8,7.3-3.8
			c2.8,0,7.6,0,10.4,0c4.3,0.1,5.5,2.8,4.6,5.1l-3.4,9.4C167.2,112.6,164.3,114.8,161.4,114.8"/>
		<path class="st1" d="M213.5,119.9c-2.7-0.1-3.1-2.8-2.3-5.1c-4.3,0-6.6,0.1-10.9,0.1c-4.6,0-5.1-3-4.1-5.3
			c1.3-3.6,2.1-5.9,3.4-9.5c0.9-2.6,3.4-3.4,5.9-3.3c2.6,0,3.4,1.6,2.8,3.3l-3.6,9.8h3.7c1.2-3.3,2-6.6,3.2-9.8
			c0.8-1.9,2.3-3.3,5.7-3.2c3.1,0.1,4.3,1.9,3.8,3.1c-1.2,3.3-2.2,6.6-3.4,9.9c1.7-0.1,3.1,0.3,2.2,2.9c-0.5,1.3-1,2.7-1.5,4
			C217.8,118.1,216.4,119.9,213.5,119.9"/>
		<path class="st1" d="M258.2,107.3c0.9,0,1.5,0.9,1.2,2c-0.5,1.6-1.2,2-2.6,2c-1.2,0-1.4-1.1-1.1-2.2
			C256.1,108.2,257,107.3,258.2,107.3 M253.1,102.7c2,0,2.1-0.6,4.1-0.6s3.2,0.7,2.7,2.7c-3.4-0.6-9.7,0-11.6,4.9
			c-1.3,3.4-0.9,6,3.2,6c0.2,0,0.5,0,0.7,0c3.2,0,4.3-1.3,5.6-2.6c-0.1,1.8,1.4,2.8,3.6,2.8c0.1,0,0.2,0,0.4,0
			c2.9,0,6.3-1.5,7.1-4.3c0.8-2.6,1.6-5.1,2.4-7.7c1.6-5.2-2.5-7.7-7.9-7.7c-2.4,0-10.4,0.5-11.5,4
			C251.5,101.5,251.9,102.7,253.1,102.7z"/>
		<path class="st1" d="M239.2,120c-2.7-0.1-2.7-2.9-1.9-5.3c-4.3,0-6.6,0.1-10.9,0.1c-4.6,0-5.1-3-4.1-5.3c1.3-3.6,2.1-5.9,3.4-9.5
			c0.9-2.6,3.4-3.4,5.9-3.3c2.6,0,3.5,1.6,2.8,3.3l-3.6,9.8h3.7c1.2-3.3,2-6.6,3.2-9.8c0.8-1.9,2.3-3.3,5.7-3.2
			c3.1,0.1,4.3,1.9,3.8,3.1c-1.2,3.3-2.2,6.6-3.4,9.9c1.7-0.1,3.1,0.3,2.2,2.9c-0.5,1.3-1,2.7-1.5,4C243.8,118.1,242,120,239.2,120"
			/>
		<path class="st2" d="M262.5,84.6c1.6-2,2.9-6.3,3.2-9.6c0.1-1.6-1.4-1.7-2.9,0c-3.1,3.5-4.8,6.8-6,9.8
			C258.9,84.8,260.2,84.7,262.5,84.6 M243.5,92.6c-5.5,0-4.8-7.7,0.8-7.7c4.5-8.9,13.4-21.3,25.1-22.4c13.8-0.2,11.2,12.3,7.6,21.4
			c3.2,0,4.8,2.6,4.2,5.2c-0.9,3-3.7,3.6-6.8,3.6C263.6,92.6,254.2,92.6,243.5,92.6z"/>
		<path class="st1" d="M105,10.5c-1.5,0.4-6.4,1.7-8,4.4c-0.6-0.3-1-0.7-1-1.3C96.3,11.7,102.1,10.6,105,10.5"/>
		<path class="st1" d="M115.4,6.9c-0.3-0.2-2.2-3.7-3.7-2.4c-1.5,1.2,2.3,2.8,2.3,2.8L115.4,6.9z"/>
		<path class="st1" d="M103.3,8.6c0.8-0.3,4.6-1.7,9.1-0.6c-0.7-0.4-7-3-8.9-0.3C103.3,8,103.2,8.3,103.3,8.6"/>
		<path class="st1" d="M84.6,52.8c-3.8-6.9-10.4-11-18.1-13.3c-2.4-0.5-4.4-0.7-5.8-0.8c-0.7,5.4,1.7,12.8,6.5,19.4
			c0.5-2.7,1.2-8-1.1-13.3c3.5,5.1,3.4,11,3.5,16.3c0.2,1.8,2.1,3.4,3.4,3.4c1.1-2.5-0.1-13.7-2.4-20.1c4.1,7.1,5.3,17.3,4.9,22.3
			l0,0c1.8-4.6,2.7-7.5,1.8-13.3c-0.8-3.5-2.2-7.1-3.3-9.1c1.3,1.2,2.3,2.8,3,4.3L84.6,52.8z"/>
	</g>
</g>
</svg>
