<?xml version="1.0" encoding="utf-8"?>
<!-- Generator: Adobe Illustrator 21.1.0, SVG Export Plug-In . SVG Version: 6.00 Build 0)  -->
<svg version="1.1" id="Layer_1" xmlns="http://www.w3.org/2000/svg" xmlns:xlink="http://www.w3.org/1999/xlink" x="0px" y="0px"
	 viewBox="0 0 94 24.6" style="enable-background:new 0 0 94 24.6;" xml:space="preserve">
<style type="text/css">
	.st0{fill:#2E2D2C;}
	.st1{fill:#00A250;}
</style>
<g>
	<g>
		<path class="st0" d="M83,24.2c-1.9,0-2.8-0.4-3.5-1.1c-0.8-0.8-1.1-1.9-1.1-4.2c0-4.3,1.7-5.1,4.7-5.1c0.8,0,1.7,0.1,2.5,0.3
			c0,0,0,0,0,0c0.2,0.1,0.2,0.3,0.2,0.3l-0.3,1c0,0-0.1,0.2-0.4,0.2c-0.8-0.1-1-0.1-1.7-0.1c-2.1-0.1-3.2,0.1-3.2,3.5
			c0,3.1,1.2,3.6,3.2,3.5c0.9,0,1.2-0.1,1.6-0.1c0,0,0.2,0,0.2,0c0.2,0,0.3,0.2,0.3,0.2l0.3,1.1c0,0,0.1,0.2-0.1,0.2
			c0,0-0.1,0-0.1,0C84.8,24.1,83.9,24.2,83,24.2z"/>
		<path class="st0" d="M46.7,19.4c-0.3-0.4-0.7-0.8-1.2-1l0,0c-0.1-0.1-0.3-0.1-0.4-0.2c-0.3-0.1-0.7-0.1-1.1-0.2l-0.2,0
			c-0.4,0-0.9-0.1-1.2-0.2c-0.9-0.2-1-0.8-1-1.3c0-0.5,0.3-1,1-1.1c0.2,0,0.5-0.1,0.8-0.1c0.2,0,0.4,0,0.6,0c0.4,0,0.8,0,1.1,0.1
			c0.4,0,0.7,0.1,1,0.1c0.1,0,0.1,0,0.2,0c0.1,0,0.2-0.1,0.2-0.1c0.1-0.1,0.1-0.2,0.1-0.2l0.2-0.9c0,0,0-0.1,0-0.1
			c0-0.1-0.1-0.1-0.2-0.1c-1-0.2-1.7-0.3-2.7-0.3c0,0,0,0-0.1,0c-0.1,0-0.2,0-0.3,0l-0.1,0c-1.5,0-2.3,0.3-2.9,0.9
			c-0.6,0.6-0.8,1.2-0.8,2c0,2.5,1.8,2.7,2.9,2.8c0.1,0,0.1,0,0.2,0c0.6,0.1,1.1,0.1,1.5,0.3c0.6,0.3,1,0.7,0.9,1.3
			c0,0.5-0.4,1-0.9,1.2c-0.4,0.2-0.7,0.2-1.3,0.2c-0.1,0-0.2,0-0.3,0c-0.8,0-1.4-0.1-2.1-0.3c0,0,0,0,0,0c0,0-0.1,0-0.1,0
			c-0.2,0-0.4,0.2-0.5,0.4L40,23.6c0,0,0,0.1,0,0.1c0,0,0,0,0,0l0,0c0.1,0,0.2,0,0.2,0.1c1,0.2,1.8,0.3,2.6,0.3
			c0.9,0,1.6-0.1,2.1-0.2c0.8-0.2,1.2-0.6,1.5-0.9c0.4-0.5,0.7-1.2,0.7-1.9C47.2,20.6,47,19.9,46.7,19.4z"/>
		<path class="st0" d="M64.5,0.7c0-0.2-0.1-0.3-0.3-0.3c0,0-7.5,0-7.5,0c0,0,0,0,0,0c-0.2,0-0.3,0.1-0.3,0.3l0,0l0,0l0,1
			c0,0.2,0.1,0.3,0.3,0.3c0,0,0,0,0,0h2.8v8.3h1.3c0,0,0.1,0,0.2,0h0c0.2,0,0.3-0.1,0.3-0.3v0l0-0.1V2.1H64l0,0c0,0,0.1,0,0.1,0l0,0
			c0,0,0,0,0,0c0.2,0,0.3-0.1,0.3-0.3C64.5,1.7,64.5,0.7,64.5,0.7z"/>
		<path class="st0" d="M44.9,0.4h-4.9v0l0,0c-0.2,0-0.3,0.1-0.3,0.3h0v9.7h1.5c0,0,0,0,0,0s0,0,0,0h0l0,0c0.2,0,0.3-0.1,0.3-0.3v0v0
			v-3H45c2,0,2.7-1.7,2.7-3.3C47.7,1.5,46.8,0.4,44.9,0.4z M44.5,5.5h-2.9V2h2.9c0.8,0,1.4,0.5,1.4,1.8C45.9,5.1,45.3,5.5,44.5,5.5z
			"/>
		<path class="st0" d="M55.8,9.2L55.8,9.2L55.8,9.2L55.8,9.2c0-0.2-0.1-0.3-0.3-0.3c0,0,0,0,0,0h-5.1l-0.2,0V6.1V5.9h4.3
			c0.1,0,0.3-0.1,0.3-0.3c0,0,0-0.2,0-0.3c0-0.2,0-0.7,0-0.7c0-0.1-0.1-0.3-0.3-0.3h-4.1h-0.2V2.1h5.2c0,0,0.1,0,0.1,0c0,0,0,0,0,0
			c0.2,0,0.3-0.1,0.3-0.3v0V1.6V0.7v0v0c0-0.2-0.1-0.3-0.3-0.3c0,0,0,0,0,0h-6.8l0,0l0,0c-0.2,0-0.3,0.1-0.3,0.3v0l0,9.7h7.1
			c0,0,0,0,0,0c0.2,0,0.3-0.1,0.3-0.3h0V9.2L55.8,9.2z"/>
		<path class="st0" d="M72.5,9.2L72.5,9.2L72.5,9.2C72.5,9.2,72.5,9.1,72.5,9.2c0-0.2-0.1-0.3-0.3-0.3c0,0,0,0,0,0h-5.1l-0.2,0V6.1
			V5.9h4.3c0.1,0,0.3-0.1,0.3-0.3c0,0,0-0.2,0-0.3c0-0.2,0-0.7,0-0.7c0-0.1-0.1-0.3-0.3-0.3h-4.1h-0.2V2.1h5.2c0,0,0.1,0,0.1,0
			c0,0,0,0,0,0c0.2,0,0.3-0.1,0.3-0.3v0V1.6V0.7v0v0c0-0.2-0.1-0.3-0.3-0.3c0,0,0,0,0,0c0,0-6.8,0-6.8,0l0,0h0
			c-0.2,0-0.3,0.1-0.3,0.3v0l0,9.7h7.1c0,0,0,0,0,0c0.2,0,0.3-0.1,0.3-0.3h0V9.2L72.5,9.2z"/>
		<path class="st0" d="M55.6,22.7L55.6,22.7L55.6,22.7C55.6,22.7,55.6,22.7,55.6,22.7c0-0.2-0.1-0.3-0.3-0.3c0,0,0,0,0,0h-5.1
			l-0.2,0v-2.7v-0.2h4.3c0.1,0,0.3-0.1,0.3-0.3c0,0,0-0.2,0-0.3c0-0.2,0-0.7,0-0.7c0-0.1-0.1-0.3-0.3-0.3h-4.1H50v-2.3h5.2
			c0,0,0.1,0,0.1,0c0,0,0,0,0,0c0.2,0,0.3-0.1,0.3-0.3c0,0,0,0,0,0v-0.2v-0.8c0,0,0,0,0,0l0,0c0-0.2-0.1-0.3-0.3-0.3c0,0,0,0,0,0
			c0,0-6.8,0-6.8,0l0,0l0,0c-0.2,0-0.3,0.1-0.3,0.3v0l0,9.7h7.1c0,0,0,0,0,0c0.2,0,0.3-0.1,0.3-0.3l0,0V22.7L55.6,22.7z"/>
		<path class="st0" d="M94,22.7L94,22.7L94,22.7C94,22.7,94,22.7,94,22.7c0-0.2-0.1-0.3-0.3-0.3c0,0,0,0,0,0h-5.1l-0.2,0v-2.7v-0.2
			h4.3c0.1,0,0.3-0.1,0.3-0.3c0,0,0-0.2,0-0.3c0-0.2,0-0.7,0-0.7c0-0.1-0.1-0.3-0.3-0.3h-4.1h-0.2v-2.3h5.2c0,0,0.1,0,0.1,0
			c0,0,0,0,0,0c0.2,0,0.3-0.1,0.3-0.3v0v-0.2v-0.8c0,0,0,0,0,0l0,0c0-0.2-0.1-0.3-0.3-0.3c0,0,0,0,0,0h-6.8l0,0l0,0
			c-0.2,0-0.3,0.1-0.3,0.3v0l0,9.7h7.1c0,0,0,0,0,0c0.2,0,0.3-0.1,0.3-0.3l0,0V22.7L94,22.7z"/>
		<path class="st0" d="M79.2,6.6c1.4-0.4,2.3-1.4,2.3-3c0-1.9-1.2-3.2-3.6-3.2l-4.1,0c0,0,0,0,0,0c-0.2,0-0.3,0.1-0.3,0.3l0,0l0,9.7
			h1.4h0c0.2,0,0.3-0.1,0.3-0.3l0,0V6.9h2l3.3,3.3l0,0c0.1,0.1,0.2,0.1,0.3,0.1h0h2.1L79.2,6.6z M75.2,5.4V2.1h2.5
			c1.3,0,2,0.6,2,1.6c0,1-0.7,1.7-2,1.7H75.2z"/>
		<path class="st0" d="M62.5,20.2c1.4-0.4,2.3-1.4,2.3-3c0-1.9-1.2-3.2-3.6-3.2h-4.1c0,0,0,0,0,0c-0.2,0-0.3,0.1-0.3,0.3l0,0V24h1.4
			h0c0.2,0,0.3-0.1,0.3-0.3v0v-3.1h2l3.3,3.3l0,0c0.1,0.1,0.2,0.1,0.3,0.1h0h2.1L62.5,20.2z M58.5,18.9v-3.3H61c1.3,0,2,0.6,2,1.6
			c0,1-0.7,1.7-2,1.7H58.5z"/>
		<path class="st0" d="M74.7,14h-1.6l0,0c-0.2,0-0.4,0.1-0.4,0.3l-2.9,7.4L67,14.3l0,0c-0.1-0.2-0.2-0.3-0.4-0.3c0,0,0,0,0,0h-1.6
			l0.3,0.6l3.8,9.2c0,0.1,0.2,0.2,0.3,0.2l0,0l0,0h1.1l0,0c0.2,0,0.3-0.2,0.3-0.2L74.7,14z"/>
		<path class="st0" d="M77.4,14.3C77.4,14.3,77.4,14.3,77.4,14.3c0-0.2-0.1-0.3-0.3-0.3c0,0,0,0,0,0h0h0c0,0,0,0,0,0H76H76
			c0,0,0,0,0,0c0,0,0,0,0,0h0c0,0,0,0,0,0c-0.2,0-0.3,0.1-0.3,0.3l0,0v0v0v0v0.1v9h0V24h0.1l0,0h1.3l0,0c0,0,0,0,0,0
			c0.2,0,0.3-0.1,0.3-0.3h0V14.3z"/>
	</g>
	<g>
		<path class="st0" d="M34.1,10.7c0.9,0.9,0.9,2.3,0,3.1L24,24c-0.9,0.9-2.3,0.9-3.1,0L10.8,13.9c-0.9-0.9-0.9-2.3,0-3.1L20.9,0.7
			c0.9-0.9,2.3-0.9,3.1,0L34.1,10.7z"/>
		<path class="st1" d="M24,10.7c0.9,0.9,0.9,2.3,0,3.1L13.9,24c-0.9,0.9-2.3,0.9-3.1,0L0.6,13.9c-0.9-0.9-0.9-2.3,0-3.1L10.7,0.7
			c0.9-0.9,2.3-0.9,3.1,0L24,10.7z"/>
	</g>
</g>
</svg>
