<svg id="43dbe200-3f32-4b4c-b174-580cd3c88b99" data-name="Layer 1" xmlns="http://www.w3.org/2000/svg" viewBox="0 0 201.66 24.15"><defs><style>.d86e0134-3568-41cd-83ef-80e9393584d1{fill:#00ad5f;}.e9a2d778-f4b9-4218-b7c2-b75256ac3371{fill:#2e2d2c;}.\32 8588d4c-3074-428e-83f1-d87d6fe501b8{fill:#00a250;}</style></defs><title>peter-service</title><path class="d86e0134-3568-41cd-83ef-80e9393584d1" d="M109.9,15.72a1.2,1.2,0,0,1-.85-2.05l1.77-1.77L109,10.13a1.2,1.2,0,0,1,1.7-1.7L113.37,11a1.2,1.2,0,0,1,0,1.7l-2.62,2.62A1.19,1.19,0,0,1,109.9,15.72Z"/><path class="e9a2d778-f4b9-4218-b7c2-b75256ac3371" d="M172.17,4.58a.47.47,0,0,1,.46-.46h1.87a.47.47,0,0,1,.47.46v15a.47.47,0,0,1-.47.47h-1.87a.47.47,0,0,1-.46-.47Z"/><path class="e9a2d778-f4b9-4218-b7c2-b75256ac3371" d="M184,20.43c-3.07,0-4.47-.57-5.62-1.77s-1.84-3.08-1.84-6.65c0-6.85,2.74-8.2,7.46-8.2a18.3,18.3,0,0,1,3.93.48H188c.39.1.27.42.27.42l-.42,1.67s-.1.31-.61.26c-1.32-.14-1.58-.17-2.72-.21-3.39-.11-5.05.24-5.05,5.67,0,5,1.91,5.78,5.13,5.64a18.76,18.76,0,0,0,2.52-.22l.31,0a.35.35,0,0,1,.42.26l.4,1.77s.09.32-.17.39l-.1,0A18,18,0,0,1,184,20.43Z"/><path class="e9a2d778-f4b9-4218-b7c2-b75256ac3371" d="M127.08,12.76a4.27,4.27,0,0,0-2-1.6h0a5.5,5.5,0,0,0-.7-.25,12.1,12.1,0,0,0-1.8-.31l-.36,0a16.47,16.47,0,0,1-1.91-.24c-1.52-.39-1.62-1.2-1.56-2.11a1.93,1.93,0,0,1,1.62-1.79,7.15,7.15,0,0,1,1.33-.1l1,0c.67,0,1.29.08,1.83.13s1.15.13,1.63.21a.66.66,0,0,0,.25,0,.69.69,0,0,0,.37-.19.72.72,0,0,0,.23-.39l.33-1.39a.26.26,0,0,0,0-.21.41.41,0,0,0-.28-.18,27.25,27.25,0,0,0-4.34-.46h-.61c-2.41.07-3.69.47-4.72,1.48A4.19,4.19,0,0,0,116,8.58c0,4,3,4.25,4.72,4.43l.34,0a10.4,10.4,0,0,1,2.37.43,2.16,2.16,0,0,1,1.52,2.1,2.23,2.23,0,0,1-1.38,1.94,4.77,4.77,0,0,1-2.07.34H121a15.91,15.91,0,0,1-3.35-.46h0l-.19,0a.75.75,0,0,0-.74.66l-.31,1.51a.28.28,0,0,0,0,.14s0,.06.06.06h0l.38.09a18.73,18.73,0,0,0,4.2.5,13.8,13.8,0,0,0,3.41-.35,4.58,4.58,0,0,0,3.43-4.54A5.39,5.39,0,0,0,127.08,12.76Z"/><path class="e9a2d778-f4b9-4218-b7c2-b75256ac3371" d="M77.56,4.61a.5.5,0,0,0-.5-.49h-12a.5.5,0,0,0-.5.5h0v1.6a.5.5,0,0,0,.5.5h4.57V20.08H72a.5.5,0,0,0,.5-.5h0V6.72h4.56a.5.5,0,0,0,.5-.5Z"/><path class="e9a2d778-f4b9-4218-b7c2-b75256ac3371" d="M46.07,4.11H38.29a.5.5,0,0,0-.5.5h0V20.08H40.2a.5.5,0,0,0,.49-.5h0V14.78h5.46c3.19,0,4.33-2.73,4.33-5.24C50.47,5.89,49,4.11,46.07,4.11Zm-.7,8.15H40.69V6.66H45.4c1.32,0,2.21.81,2.21,2.86S46.7,12.27,45.37,12.27Z"/><path class="e9a2d778-f4b9-4218-b7c2-b75256ac3371" d="M63.6,18.08h0s0,0,0,0a.51.51,0,0,0-.48-.47H54.55V12.88h6.87a.43.43,0,0,0,.42-.42V10.79a.42.42,0,0,0-.42-.42H54.55V6.71h8.55a.5.5,0,0,0,.5-.5h0V4.6h0a.5.5,0,0,0-.5-.5H52.24a.5.5,0,0,0-.5.5h0V20.08H63.09a.5.5,0,0,0,.5-.49h0v-1.5Z"/><path class="e9a2d778-f4b9-4218-b7c2-b75256ac3371" d="M90.58,18.08h0a.18.18,0,0,0,0,0,.51.51,0,0,0-.47-.47H81.53V12.88H88.4a.43.43,0,0,0,.42-.42V10.79a.42.42,0,0,0-.42-.42H81.53V6.71h8.54a.5.5,0,0,0,.5-.5h0V4.6h0a.5.5,0,0,0-.5-.5H79.23a.5.5,0,0,0-.5.5h0V20.08H90.08a.5.5,0,0,0,.5-.49h0v-1.5Z"/><path class="e9a2d778-f4b9-4218-b7c2-b75256ac3371" d="M140.89,18.08h0a.08.08,0,0,0,0,0,.51.51,0,0,0-.47-.47h-8.57V12.88h6.87a.42.42,0,0,0,.42-.42V10.79a.42.42,0,0,0-.42-.42h-6.86V6.71h8.54a.5.5,0,0,0,.5-.5h0V4.6h0a.5.5,0,0,0-.5-.5H129.53a.5.5,0,0,0-.5.5h0V20.08h11.36a.5.5,0,0,0,.5-.49h0v-1.5Z"/><path class="e9a2d778-f4b9-4218-b7c2-b75256ac3371" d="M201.66,18.08h0a.12.12,0,0,0,0,0,.51.51,0,0,0-.47-.47h-8.57V12.88h6.87a.42.42,0,0,0,.42-.42V10.79a.42.42,0,0,0-.42-.42h-6.87V6.71h8.54a.5.5,0,0,0,.5-.5h0V4.6h0a.5.5,0,0,0-.5-.5H190.3a.5.5,0,0,0-.5.5h0V20.08h11.36a.5.5,0,0,0,.5-.49h0v-1.5Z"/><path class="e9a2d778-f4b9-4218-b7c2-b75256ac3371" d="M101.16,14a4.63,4.63,0,0,0,3.61-4.83c0-3.08-2-5.11-5.73-5.11H92.43a.51.51,0,0,0-.51.5h0V20.08h2.31a.5.5,0,0,0,.5-.5h0V14.51h3.13l5.36,5.34h0a.75.75,0,0,0,.53.22h3.34Zm-6.43-2V6.71h4.08c2.07,0,3.16.89,3.16,2.6S100.84,12,98.84,12Z"/><path class="e9a2d778-f4b9-4218-b7c2-b75256ac3371" d="M151.48,14a4.63,4.63,0,0,0,3.61-4.83c0-3.08-2-5.11-5.73-5.11h-6.61a.5.5,0,0,0-.5.5h0V20.08h2.31a.5.5,0,0,0,.5-.5h0V14.51h3.13l5.36,5.34h0a.76.76,0,0,0,.53.22h3.34ZM145,12V6.71h4.08c2.07,0,3.16.89,3.16,2.6S151.16,12,149.15,12Z"/><path class="e9a2d778-f4b9-4218-b7c2-b75256ac3371" d="M32.85,10.54a2.18,2.18,0,0,1,0,3.08l-9.9,9.9a2.18,2.18,0,0,1-3.08,0L10,13.62a2.18,2.18,0,0,1,0-3.08l9.9-9.9a2.17,2.17,0,0,1,3.08,0Z"/><path class="28588d4c-3074-428e-83f1-d87d6fe501b8" d="M23.51,10.54a2.18,2.18,0,0,1,0,3.08l-9.9,9.9a2.18,2.18,0,0,1-3.08,0l-9.9-9.9a2.19,2.19,0,0,1,0-3.08l9.9-9.9a2.18,2.18,0,0,1,3.08,0Z"/><path class="e9a2d778-f4b9-4218-b7c2-b75256ac3371" d="M171,4.12h-2.52a.75.75,0,0,0-.69.46l-4.6,11.8L158.56,4.57h0a.74.74,0,0,0-.69-.46h-2.59l.42,1,6.08,14.72a.49.49,0,0,0,.48.35H164a.53.53,0,0,0,.47-.31Z"/></svg>