<svg width="2511" height="914" viewBox="0 0 2511 914" fill="none" xmlns="http://www.w3.org/2000/svg">
<path opacity="0.9" fill-rule="evenodd" clip-rule="evenodd" d="M1920.48 171.57C2294.24 136.71 2474.96 299.972 2507.43 651.465L2510.04 679.811L2105.13 717.577L2100.16 663.719C2093.88 595.688 2045.43 565.898 1951.99 574.613L1531.36 613.845C1375.63 628.37 1267.67 572.681 1207.76 449.612C1171.4 581.659 1075.49 656.364 922.584 670.625L535.935 706.687C442.496 715.403 400.332 753.644 406.615 821.673L411.588 875.532L6.68008 913.297L4.06225 884.951C-28.6614 530.624 136.328 337.976 498.764 304.171L794.803 276.561C933.547 263.619 986.252 215.818 976.042 105.269L969.76 37.2374L1369 0L1375.29 68.0311C1385.5 178.582 1446.05 215.819 1584.8 202.878L1920.48 171.57Z" fill="#A000EA"/>
</svg>
