<svg xmlns="http://www.w3.org/2000/svg" xmlns:xlink="http://www.w3.org/1999/xlink" viewBox="0 0 497.18 541.19"><defs><style>.a{fill:url(#a);}.b{fill:url(#b);}</style><linearGradient id="a" x1="55.29" y1="-46.87" x2="441.54" y2="339.38" gradientUnits="userSpaceOnUse"><stop offset="0" stop-color="#b07ec5"/><stop offset="1" stop-color="#55e3ca"/></linearGradient><linearGradient id="b" x1="68.44" y1="254.13" x2="421.35" y2="607.04" xlink:href="#a"/></defs><title>logo</title><path class="a" d="M482.45,0H14.37A14.37,14.37,0,0,0,0,14.37V278.14a14.37,14.37,0,0,0,14.37,14.37H482.45a14.37,14.37,0,0,0,14.37-14.37V14.37A14.37,14.37,0,0,0,482.45,0ZM182.64,182.9a5,5,0,0,1,2.45,6.66L173.32,215a5,5,0,0,1-6.66,2.45L51.77,164.41l-.1,0-.1,0,0,0-.31-.16L51,164l-.1-.06a5,5,0,0,1-2.17-4.74V132.46a5.16,5.16,0,0,1,3.61-5.56L166.66,74.06a5,5,0,0,1,6.66,2.45L185.09,102a5,5,0,0,1-2.45,6.66l-80.36,37.13ZM300.45,46,232.11,256.78a6.89,6.89,0,0,1-8.68,4.43l-21.67-7a6.89,6.89,0,0,1-4.43-8.68L265.67,34.77a6.89,6.89,0,0,1,8.68-4.43l21.67,7A6.89,6.89,0,0,1,300.45,46ZM448.61,159.17a5,5,0,0,1-2.17,4.74l-.1.06-.25.15-.31.16,0,0-.1,0-.1,0L330.64,217.49A5,5,0,0,1,324,215l-11.77-25.48a5,5,0,0,1,2.45-6.66L395,145.78l-80.36-37.13a5,5,0,0,1-2.45-6.66L324,76.51a5,5,0,0,1,6.66-2.45L445,126.9a5.16,5.16,0,0,1,3.61,5.56Z"/><path class="b" d="M.36,399.19v-76a1.8,1.8,0,0,1,2-2H12a1.8,1.8,0,0,1,2,2v31l15.4-31.5a2.38,2.38,0,0,1,2.3-1.5h10.5c1.5,0,2.1,1,1.4,2.4l-17,34.9,18.1,40.4c.7,1.3.1,2.3-1.5,2.3H32.57a2.21,2.21,0,0,1-2.3-1.5L17.66,370l-3.7,7.1v22.1a1.8,1.8,0,0,1-2,2H2.36A1.8,1.8,0,0,1,.36,399.19Zm70.6,2H60.56a1.47,1.47,0,0,1-1.6-1.6v-76.8a1.47,1.47,0,0,1,1.6-1.6h25.1c9.4,0,14.4,5,14.4,14.4V360c0,6.7-2.5,11.1-7.3,13.2l6.9,26.2c.3,1.2-.3,1.8-1.4,1.8H87.86a1.57,1.57,0,0,1-1.7-1.4l-6.7-25.4h-6.9v25.2A1.47,1.47,0,0,1,71,401.19Zm1.6-40h9.9c2.6,0,4-1.4,4-4v-18.8c0-2.6-1.4-4-4-4h-9.9Zm72.7,24h-17.8l-2.7,14.6a1.54,1.54,0,0,1-1.6,1.4h-10.7c-1.1,0-1.6-.6-1.3-1.7l16.6-76.9a1.56,1.56,0,0,1,1.7-1.4h13.9a1.56,1.56,0,0,1,1.7,1.4l16.6,76.9c.2,1.1-.2,1.7-1.4,1.7h-10.6a1.54,1.54,0,0,1-1.6-1.4Zm-2.5-11.6-6.4-34.9-6.4,34.9Zm55.5-52.4h-11.2c-9.3,0-14.4,5-14.4,14.4v23.6a3.57,3.57,0,0,0,2.7,3.7l23.7,7.8V384c0,2.7-1.4,4-4,4h-4.8c-2.5,0-4-1.3-4-4v-7.7c0-1.1-.5-1.6-1.6-1.6h-10.4a1.43,1.43,0,0,0-1.6,1.6v10.5c0,9.4,5.1,14.4,14.4,14.4h11.2c9.4,0,14.4-5,14.4-14.4v-23.1a3.67,3.67,0,0,0-2.6-3.7l-23.8-7.8v-13.8a3.63,3.63,0,0,1,4-4h4.8c2.7,0,4,1.4,4,4v7.8a1.47,1.47,0,0,0,1.6,1.6h10.4a1.43,1.43,0,0,0,1.6-1.6v-10.6C212.66,326.19,207.66,321.19,198.26,321.19Zm60.6,80h9.9a1.47,1.47,0,0,0,1.6-1.6v-76.8a1.47,1.47,0,0,0-1.6-1.6h-10.4a1.43,1.43,0,0,0-1.6,1.6V365h-.6L241,322.49a1.72,1.72,0,0,0-1.8-1.3h-9.9a1.47,1.47,0,0,0-1.6,1.6v76.8a1.47,1.47,0,0,0,1.6,1.6h10.4a1.43,1.43,0,0,0,1.6-1.6v-42.4h.5l15.3,42.7A1.72,1.72,0,0,0,258.86,401.19Zm52.1,0h-11.2c-9.4,0-14.4-5-14.4-14.4v-51.2c0-9.4,5-14.4,14.4-14.4H311c9.4,0,14.4,5,14.4,14.4v51.2C325.36,396.19,320.36,401.19,311,401.19Zm-2.5-12.9c2.6,0,4-1.3,4-4v-46.2c0-2.6-1.4-4-4-4h-5.8c-2.6,0-4,1.4-4,4v46.2c0,2.7,1.4,4,4,4Zm31.9,11.3v-76.8a1.43,1.43,0,0,1,1.6-1.6h24c9.4,0,14.4,5.1,14.4,14.5v51.1c0,9.4-5,14.4-14.4,14.4H342A1.39,1.39,0,0,1,340.36,399.6ZM354,388h9.2c2.6,0,4-1.3,4-4v-45.5c0-2.7-1.4-4.1-4-4.1H354Zm88,11.5c.2,1.1-.2,1.7-1.4,1.7H430a1.54,1.54,0,0,1-1.6-1.4l-2.8-14.6h-17.8l-2.7,14.6a1.54,1.54,0,0,1-1.6,1.4h-10.7c-1.1,0-1.6-.6-1.3-1.7l16.6-76.9a1.56,1.56,0,0,1,1.7-1.4h13.9a1.56,1.56,0,0,1,1.7,1.4Zm-18.9-25.9-6.4-34.9-6.4,34.9Zm32.9,26v-76.8a1.47,1.47,0,0,1,1.6-1.6h25.1c9.4,0,14.4,5,14.4,14.4V360c0,6.7-2.5,11.1-7.3,13.2l6.9,26.2c.3,1.2-.3,1.8-1.4,1.8h-10.4a1.57,1.57,0,0,1-1.7-1.4l-6.7-25.4h-6.9v25.2a1.47,1.47,0,0,1-1.6,1.6h-10.4A1.47,1.47,0,0,1,456,399.6Zm13.6-38.4h9.9c2.6,0,4-1.4,4-4v-18.8c0-2.6-1.4-4-4-4h-9.9ZM54.64,452.11v69.5c0,12.78-6.8,19.58-19.58,19.58H2.42A1.89,1.89,0,0,1,.24,539V434.57a1.94,1.94,0,0,1,2.18-2.18H35.06C47.84,432.39,54.64,439.33,54.64,452.11Zm-18,3.81c0-3.67-1.9-5.58-5.44-5.58H18.74v72.9H31.25c3.54,0,5.44-1.77,5.44-5.44Zm83.64-23.53h-50a2,2,0,0,0-2,2.18V539a2,2,0,0,0,2,2.18h50c1.63,0,2.18-.82,2.18-2.18v-13.6c0-1.5-.54-2.18-2.18-2.18h-34V495.77h26a2,2,0,0,0,2.18-2.31V480a2,2,0,0,0-2.18-2.31h-26v-27.2h34c1.63,0,2.18-1,2.18-2.31v-13.6C122.5,433.21,122,432.39,120.33,432.39Zm76.16,0H183.57a2.83,2.83,0,0,0-3,2.45l-14.42,72.9-14.28-72.9a2.82,2.82,0,0,0-3-2.45H136c-2,0-2.86,1.09-2.45,3l22.85,103.36a2.83,2.83,0,0,0,3,2.45H173a2.82,2.82,0,0,0,3-2.45l23-103.36C199.34,433.48,198.53,432.39,196.49,432.39Zm101.86,19.72v69.5c0,12.78-6.8,19.58-19.58,19.58H246.13A1.89,1.89,0,0,1,244,539V434.57a1.94,1.94,0,0,1,2.18-2.18h32.64C291.55,432.39,298.35,439.33,298.35,452.11Zm-18,3.81c0-3.67-1.9-5.58-5.44-5.58H262.45v72.9H275c3.54,0,5.44-1.77,5.44-5.44Zm94.93,83c.27,1.5-.27,2.31-1.9,2.31H359a2.09,2.09,0,0,1-2.18-1.9L353,519.43H328.81l-3.67,19.86a2.09,2.09,0,0,1-2.18,1.9H308.42c-1.5,0-2.18-.82-1.77-2.31L329.22,434.3a2.12,2.12,0,0,1,2.31-1.9h18.9a2.12,2.12,0,0,1,2.31,1.9Zm-25.7-35.22-8.7-47.46-8.7,47.46Zm83.91-71.26h-13.6a3,3,0,0,0-3.13,2.18l-15.23,39-15.23-39a3,3,0,0,0-3.13-2.18h-13.6c-2,0-3,1.22-2.18,3.13L392.33,496v42.43a2.44,2.44,0,0,0,2.72,2.72H408.1a2.44,2.44,0,0,0,2.72-2.72V496l24.89-60.52C436.53,433.62,435.58,432.39,433.54,432.39Zm47.33,36.18H495a1.94,1.94,0,0,0,2.18-2.18V452c0-12.78-6.8-19.58-19.58-19.58H462.37c-12.65,0-19.58,6.8-19.58,19.58v32.1a4.85,4.85,0,0,0,3.67,5l32.23,10.61V517.8c0,3.67-1.9,5.44-5.44,5.44h-6.53c-3.4,0-5.44-1.77-5.44-5.44V507.33a1.89,1.89,0,0,0-2.18-2.18H445a1.94,1.94,0,0,0-2.18,2.18v14.28c0,12.78,6.94,19.58,19.58,19.58H477.6c12.78,0,19.58-6.8,19.58-19.58V490.19c0-2.58-1.22-4.08-3.54-5l-32.37-10.61V455.79c0-3.54,2-5.44,5.44-5.44h6.53c3.67,0,5.44,1.9,5.44,5.44v10.61A2,2,0,0,0,480.86,468.57Z"/></svg>