<?xml version="1.0" encoding="utf-8"?>
<!-- Generator: Adobe Illustrator 21.1.0, SVG Export Plug-In . SVG Version: 6.00 Build 0)  -->
<svg version="1.1" id="Слой_1" xmlns="http://www.w3.org/2000/svg" xmlns:xlink="http://www.w3.org/1999/xlink" x="0px" y="0px"
	 viewBox="0 0 900 400" style="enable-background:new 0 0 900 400;" xml:space="preserve">
<style type="text/css">
	.st0{fill:#A2D7E6;}
	.st1{fill:#FFFFFF;}
</style>
<rect class="st0" width="900" height="400"/>
<g>
	<path class="st1" d="M660.1,98.2h-8.5c-5.3,0-10,4.5-10.8,8.5l-34.9,193.6h12.5l5.6-31.2l58.8-30.1l11.2,61.2h12.5l-35.6-193.6
		C670.1,102.4,665.4,98.2,660.1,98.2z M626.7,254.5L652.3,114c0.2-1,0.5-3.3,2.5-3.3h2c2,0,2.5,3.3,2.5,3.3l21.2,112.6L626.7,254.5z
		"/>
	<path class="st1" d="M270.5,123.3h-2.3V99.7h-12.5v23.6H253c-20.1,0-36.1,16.1-36.1,36.1v82.3c0,20.1,16.1,36.1,36.1,36.1h2.8v22.6
		h12.5v-22.6h2.3c20.1,0,36.1-16.1,36.1-36.1v-82.3C306.6,139.3,290.6,123.3,270.5,123.3z M255.7,265.2H253
		c-13,0-23.6-10.5-23.6-23.6v-82.3c0-13,10.5-23.6,23.6-23.6h2.8V265.2z M294.1,241.6c0,13-10.5,23.6-23.6,23.6h-2.3V135.8h2.3
		c13,0,23.6,10.5,23.6,23.6V241.6z"/>
	<polygon class="st1" points="399,107.7 347.6,256.9 347.6,99.7 335,99.7 335,300.3 347.6,300.3 347.6,292 399,142.8 399,300.3 
		411.5,300.3 411.5,99.7 399,99.7 	"/>
	<polygon class="st1" points="571.7,288 545.7,288 545.7,99.7 533.1,99.7 533.1,288 453.4,288 453.4,99.7 440.9,99.7 440.9,300.3 
		584.2,300.3 584.2,99.7 571.7,99.7 	"/>
	<path class="st1" d="M189.3,151.5V99.7h-34.8h-8.5h-35.3v51.9h16.8l-26.8,148.8h12.4l5.5-30.9l58.3-29.8l11.1,60.8h12.4
		l-27.4-148.8H189.3z M176.8,139.1h-6.9v-27h6.9V139.1z M123.2,112.1h34.3v27h-34.3V112.1z M174.8,227.1l-53.5,27.8l18.9-103.3h20.4
		L174.8,227.1z"/>
	<polygon class="st1" points="800,99.7 722.1,99.7 722.1,110.8 781.5,110.9 722.1,139 722.1,151.9 800,151.9 800,141.4 739.6,141.4 
		800,113 	"/>
	<polygon class="st1" points="785.8,205.3 785.8,214 722.1,214 722.1,224.1 800,224.3 792.7,205.3 	"/>
	<rect x="722.7" y="168.1" class="st1" width="10.8" height="31.5"/>
	<path class="st1" d="M777,183.8c0-9.7-7.8-17.5-17.5-17.5s-17.5,7.8-17.5,17.5s7.8,17.5,17.5,17.5S777,193.5,777,183.8z
		 M752.7,183.8c0-3.7,3-6.8,6.8-6.8s6.8,3,6.8,6.8c0,3.7-3,6.8-6.8,6.8S752.7,187.6,752.7,183.8z"/>
</g>
</svg>
