<?xml version="1.0" encoding="utf-8"?>
<!-- Generator: Adobe Illustrator 21.1.0, SVG Export Plug-In . SVG Version: 6.00 Build 0)  -->
<svg version="1.1" id="Слой_1" xmlns="http://www.w3.org/2000/svg" xmlns:xlink="http://www.w3.org/1999/xlink" x="0px" y="0px"
	 viewBox="0 0 219.5 294.1" style="enable-background:new 0 0 219.5 294.1;" xml:space="preserve">
<style type="text/css">
	.st0{fill-rule:evenodd;clip-rule:evenodd;}
</style>
<g fill="#3CB44E">
	<path class="st0" d="M150.5,81.5c38.1,0,69,30.9,69,69c0,38.1-30.9,69-69,69c-38.1,0-69-30.9-69-69c0-13.7,4-26.5,10.9-37.3H56.6
		C25.3,113.2,0,87.9,0,56.6C0,25.3,25.3,0,56.6,0c31.3,0,56.6,25.3,56.6,56.6c0,1,0,2-0.1,3H81.3c0.1-1,0.2-2,0.2-3
		c0-13.7-11.1-24.9-24.9-24.9c-13.7,0-24.9,11.1-24.9,24.9c0,13.7,11.1,24.9,24.9,24.9h50.9H150.5L150.5,81.5z M133.3,31.9h54.4
		v27.7h31.9V31.9V0h-31.9h-54.4V31.9L133.3,31.9z M31.9,133.3v54.4h27.7v31.9H31.9H0v-31.9v-54.4H31.9L31.9,133.3z M150.5,113.3
		c20.5,0,37.2,16.6,37.2,37.2c0,20.5-16.6,37.2-37.2,37.2c-20.5,0-37.2-16.6-37.2-37.2C113.3,130,130,113.3,150.5,113.3L150.5,113.3
		z"/>
	<path d="M16.2,294.1c-4.5,0-8.4-1.8-11.5-5.5c-3.1-3.7-4.7-8.1-4.7-13.2c0-5.1,1.6-9.5,4.7-13.2c3.1-3.7,7-5.5,11.5-5.5
		c5.5,0,10.4,3.3,14.6,9.9h-5.3c-2.7-3.5-5.8-5.3-9.3-5.3c-3.2,0-5.9,1.4-8.3,4.1c-2.3,2.7-3.5,6.1-3.5,10c0,3.9,1.2,7.3,3.5,10
		c2.3,2.7,5.1,4.1,8.3,4.1c3.6,0,6.8-1.9,9.5-5.6h5.2C26.7,290.7,21.8,294.1,16.2,294.1L16.2,294.1z"/>
	<path d="M50.9,294c-4.5,0-8.4-1.8-11.5-5.5c-3.1-3.7-4.7-8.1-4.7-13.2c0-5.1,1.6-9.5,4.7-13.2c3.1-3.7,7-5.5,11.5-5.5
		c4.5,0,8.4,1.8,11.5,5.5c3.1,3.7,4.7,8.1,4.7,13.2c0,5.1-1.6,9.5-4.7,13.2C59.3,292.2,55.4,294,50.9,294L50.9,294z M50.9,261.2
		c-3.1,0-5.8,1.4-8.1,4.1c-2.3,2.7-3.4,6.1-3.4,10c0,4,1.1,7.3,3.4,10c2.3,2.7,5,4.1,8.1,4.1c3.1,0,5.8-1.4,8.1-4.1
		c2.3-2.7,3.4-6.1,3.4-10c0-3.9-1.1-7.3-3.4-10C56.7,262.5,54,261.2,50.9,261.2L50.9,261.2z"/>
	<path d="M97.6,278.5H94v15.1h-4.6V257h8.2c3,0,5.5,1,7.6,3.1c2.1,2.1,3.2,4.6,3.2,7.6c0,3-1,5.5-3.2,7.6
		C103.1,277.4,100.6,278.5,97.6,278.5L97.6,278.5z M97.6,261.6H94v12.2h3.6c1.7,0,3.1-0.6,4.3-1.8c1.2-1.2,1.8-2.6,1.8-4.3
		c0-1.7-0.6-3.2-1.8-4.3C100.7,262.2,99.3,261.6,97.6,261.6L97.6,261.6z"/>
	<polygon points="114.6,293.6 114.6,257 119.2,257 119.2,288.9 132.7,288.9 132.7,293.6 114.6,293.6 	"/>
	<path d="M157.2,293.6l-3.3-11.8h-8l-3.3,11.8h-4.8l10-36.6h3.9l10.1,36.6H157.2L157.2,293.6z M150,267.2l-2.7,10h5.5L150,267.2
		L150,267.2z"/>
	<path d="M182.9,294.1c-4.5,0-8.4-1.8-11.5-5.5c-3.1-3.7-4.7-8.1-4.7-13.2c0-5.1,1.6-9.5,4.7-13.2c3.1-3.7,7-5.5,11.5-5.5
		c5.5,0,10.4,3.3,14.6,9.9h-5.3c-2.7-3.5-5.8-5.3-9.3-5.3c-3.2,0-5.9,1.4-8.3,4.1c-2.3,2.7-3.5,6.1-3.5,10c0,3.9,1.2,7.3,3.5,10
		c2.3,2.7,5.1,4.1,8.3,4.1c3.6,0,6.8-1.9,9.5-5.6h5.2C193.4,290.7,188.5,294.1,182.9,294.1L182.9,294.1z"/>
	<polygon points="201.4,293.6 201.4,257 219.5,257 219.5,261.6 206,261.6 206,270.4 216.1,270.4 216.1,275.1 206,275.1 206,288.9 
		219.5,288.9 219.5,293.6 201.4,293.6 	"/>
	<polygon class="st0" points="75.3,278.6 79.9,278.6 79.9,273.9 75.3,273.9 75.3,278.6 	"/>
</g>
</svg>
