<?xml version="1.0" encoding="utf-8"?>
<!-- Generator: Adobe Illustrator 21.1.0, SVG Export Plug-In . SVG Version: 6.00 Build 0)  -->
<svg version="1.1"
	 id="svg2" xmlns:cc="http://creativecommons.org/ns#" xmlns:dc="http://purl.org/dc/elements/1.1/" xmlns:rdf="http://www.w3.org/1999/02/22-rdf-syntax-ns#" xmlns:svg="http://www.w3.org/2000/svg"
	 xmlns="http://www.w3.org/2000/svg" xmlns:xlink="http://www.w3.org/1999/xlink" x="0px" y="0px" viewBox="0 0 681.3 186.8"
	 style="enable-background:new 0 0 681.3 186.8;" xml:space="preserve">
<style type="text/css">
	.st0{fill:#0A71B4;}
	.st1{fill:#C7D100;}
	.st2{fill:#00632E;}
	.st3{fill:#FFD500;}
	.st4{fill:#8F0F1E;}
	.st5{fill:#E2007A;}
	.st6{fill:#561C71;}
	.st7{enable-background:new    ;}
</style>
<g id="layer1" transform="translate(0,-308.2677)">
	<g id="g3082" transform="translate(180,312.85714)">
		<path id="path3026-1" class="st0" d="M-180,106.4c0,0,23.4-23.4,52-51.8s52-51.9,52-52c0-0.1-1.2-1.8-2.6-3.7l-2.6-3.4l3.2-0.1
			c1.8,0,8,0,13.9,0.1l10.7,0.2l0,13.9l0,13.9l-3-3.1l-3-3.1L-83,40.7l-23.6,23.4l-36.5,21.2c-20.1,11.7-36.6,21.2-36.7,21.2
			C-179.9,106.5-180,106.5-180,106.4L-180,106.4z"/>
		<path id="path3030-7" class="st1" d="M-172.4,114.5c-4.2-4.3-7.6-7.9-7.6-7.9c0.1-0.1,104.7-61.1,113.5-66.2l0.7-0.4l7.6,7.5
			c4.2,4.1,7.5,7.5,7.5,7.6c-0.2,0.2-113.8,67.3-113.9,67.3C-164.7,122.3-168.2,118.8-172.4,114.5L-172.4,114.5z"/>
		<g id="g3071">
			<path id="path3034-4" class="st2" d="M-149.5,122.4c0.4-0.4,5.8-5.7,12-11.7l11.3-11l37.5-22.5C-68,64.9-51.1,54.8-51.1,54.8
				c0,0-8.9,9.1-19.8,20.2l-19.8,20.2l-29.7,14c-16.3,7.7-29.7,14-29.8,14C-150.1,123.2-149.8,122.8-149.5,122.4L-149.5,122.4
				L-149.5,122.4z"/>
			<path id="path3038-0" class="st3" d="M-142.1,130.9l-8-7.7l45.2-21.4l45.2-21.4l1.2,1.1C-54,85.9-43.9,95.9-44,96
				c-0.2,0.2-89.6,42.7-89.8,42.7C-133.9,138.6-137.7,135.2-142.1,130.9L-142.1,130.9z"/>
			<path id="path3042-9" class="st4" d="M-114.3,134.2l9.2-9.1l30.4-14.6c16.7-8,30.5-14.6,30.5-14.5c0,0-7.7,7.7-17.3,17.1
				l-17.3,17l-22.1,6.6c-12.1,3.6-22.2,6.6-22.4,6.6C-123.4,143.2-119.3,139.2-114.3,134.2z"/>
			<path id="path3046-4" class="st5" d="M-115.8,150.9c-6.4-6.2-7.8-7.7-7.6-7.8c0.4-0.2,66.1-19.4,66.7-19.5
				c0.4-0.1,1.3,0.8,7.7,7.4c4,4.1,7.3,7.6,7.3,7.6c0,0.1-14.8,4.5-32.9,9.9s-33,9.8-33.1,9.9C-107.8,158.5-111.4,155.1-115.8,150.9
				L-115.8,150.9L-115.8,150.9z"/>
			<path id="path3050-8" class="st6" d="M-91.5,173.3l-8.2-7.7l4.5-4.4c2.5-2.4,5.6-5.5,7-6.9l2.5-2.5l21.8-6.6
				c12-3.6,21.8-6.6,21.9-6.5c0,0-26.1,26.7-37.4,38.2l-4,4.1L-91.5,173.3z"/>
			<g class="st7">
				<path d="M-20.2,85.6V18.8H6.6c4.5,0,8.3,0.5,11.3,1.4c3,0.9,5.6,2.8,7.8,5.7c2.2,2.9,3.3,6.3,3.3,10.2c0,3.7-1.1,6.9-3.3,9.6
					c-2.2,2.7-5.3,4.5-9.2,5.2c4.8,0.8,8.5,2.7,11,5.7c2.5,3,3.7,6.5,3.7,10.7c0,5.1-1.7,9.5-5.2,13c-3.5,3.5-8.8,5.3-16,5.3H-20.2z
					 M-8.5,46.9H6.7c3.1,0,5.5-0.9,7.3-2.7c1.8-1.8,2.7-4.1,2.7-6.8c0-3.1-1-5.3-3.1-6.8c-2-1.4-4.5-2.2-7.2-2.2H-8.5V46.9z
					 M-8.5,75.5h16c3.4,0,6.1-0.9,8-2.6c2-1.7,2.9-4.1,2.9-7c0-2.8-1-5.1-3-6.9c-2-1.8-4.6-2.7-7.9-2.7H-8.5V75.5z"/>
				<path d="M80.9,62.4l11.5,1.2c-0.7,6.7-3.4,12.2-8,16.5s-10.6,6.5-18.1,6.5c-6.3,0-11.4-1.5-15.3-4.6c-3.9-3.1-6.9-7.2-9-12.5
					s-3.2-11-3.2-17.4c0-10.2,2.5-18.4,7.5-24.8c5-6.4,11.8-9.6,20.5-9.6c6.8,0,12.5,2,17,6.1c4.5,4.1,7.4,9.9,8.6,17.5l-11.5,1.2
					c-2.1-10.1-6.8-15.1-14-15.1c-4.6,0-8.2,2.1-10.8,6.3C53.5,38,52.3,44,52.3,52c0,8.1,1.4,14.2,4.1,18.3
					c2.8,4.1,6.4,6.2,10.9,6.2c3.6,0,6.7-1.4,9.3-4.2C79.2,69.5,80.6,66.2,80.9,62.4z"/>
				<path d="M146.9,85.6h-44.7V18.8h44.2v9.9h-31.8v18.1h25.6v9.7h-25.6v18.7h32.3V85.6z"/>
				<path d="M237.5,85.6h-13.9l-14.5-34l-13.3,17.1v16.9h-12.4V18.8h12.4v35c1.6-2.4,2.7-4,3.4-4.9l22.8-30.1h12.5l-16.3,21.9
					L237.5,85.6z"/>
				<path d="M262.4,66.1L238,18.8h13.4l16.9,33.8l13.9-33.8h11.6L272.4,69c-2.8,6.5-5.6,10.8-8.5,13.1c-2.9,2.3-7.1,3.4-12.5,3.4
					h-4.6V75.2h4.6c3.1,0,5.2-0.5,6.6-1.6c1.3-1.1,2.5-2.8,3.5-5.2L262.4,66.1z"/>
				<path d="M312.1,85.6h-12.4V18.8h28.2c8,0,14,2,17.9,5.9c3.9,3.9,5.8,8.6,5.8,13.9c0,6.1-2.1,11-6.3,14.8
					c-4.2,3.8-9.5,5.7-16,5.7h-17.2V85.6z M312.1,48.8h14.7c3.8,0,6.8-0.9,8.8-2.7c2-1.8,3-4.3,3-7.3c0-2.7-0.9-5.1-2.8-7
					s-5.2-2.9-10.1-2.9h-13.6V48.8z"/>
				<path d="M400,62.4l11.5,1.2c-0.7,6.7-3.4,12.2-8,16.5s-10.6,6.5-18.1,6.5c-6.3,0-11.4-1.5-15.3-4.6c-3.9-3.1-6.9-7.2-9-12.5
					s-3.2-11-3.2-17.4c0-10.2,2.5-18.4,7.5-24.8c5-6.4,11.8-9.6,20.5-9.6c6.8,0,12.5,2,17,6.1c4.5,4.1,7.4,9.9,8.6,17.5L400,42.6
					c-2.1-10.1-6.8-15.1-14-15.1c-4.6,0-8.2,2.1-10.8,6.3c-2.6,4.2-3.9,10.3-3.9,18.2c0,8.1,1.4,14.2,4.1,18.3
					c2.8,4.1,6.4,6.2,10.9,6.2c3.6,0,6.7-1.4,9.3-4.2C398.2,69.5,399.7,66.2,400,62.4z"/>
				<path d="M422,85.6V18.8h12.4v25.5H446c6.5,0,11.4,0.6,14.8,1.8c3.4,1.2,6.2,3.5,8.3,6.9s3.1,7.3,3.1,11.7c0,6-1.9,11-5.8,15
					c-3.8,3.9-9.8,5.9-17.8,5.9H422z M434.4,75.2h13.2c7.9,0,11.8-3.5,11.8-10.5c0-7-3.9-10.6-11.8-10.6h-13.2V75.2z M480.6,85.6
					V18.8H493v66.7H480.6z"/>
			</g>
			<g class="st7">
				<path d="M78.2,109.9c7.6,0,13.8,2.3,18.7,7s7.3,10.8,7.3,18.4c0,7.6-2.4,13.7-7.3,18.3c-4.9,4.6-11.1,6.9-18.6,6.9
					c-7.8,0-14.1-2.4-18.9-7.2c-4.8-4.8-7.1-10.6-7.1-17.5c0-8,2.4-14.4,7.2-19C64.3,112.2,70.5,109.9,78.2,109.9z M78.2,155
					c5.5,0,10-1.7,13.4-5.2c3.4-3.5,5.1-8.3,5.2-14.5c0-6.4-1.7-11.3-5.2-14.7c-3.5-3.4-7.9-5.1-13.2-5.1c-5.4,0-9.9,1.7-13.4,5
					c-3.5,3.4-5.3,8.5-5.3,15.5c0,5.7,1.7,10.3,5.1,13.8C68.2,153.2,72.7,155,78.2,155z"/>
				<path d="M156.3,159.7h-7.2v-23h-28.2v23h-7.2v-49h7.2v20.1h28.2v-20.1h7.2V159.7z"/>
				<path d="M209.7,159.7h-7.2v-43.2h-23.1v26c0,4.3-0.2,7.6-0.7,10.1c-0.5,2.5-1.6,4.4-3.4,5.8c-1.8,1.4-4,2.1-6.6,2.1
					c-1.8,0-3.7-0.3-5.7-0.8l1.2-5.7c1.2,0.4,2.2,0.7,3,0.7c1.8,0,3-0.6,3.8-1.8c0.8-1.2,1.1-3.5,1.1-6.8v-35.3h37.5V159.7z"/>
				<path d="M266.4,159.7h-8.1l-6.4-14.9h-22.7l-6,14.9h-7.6l20.8-49h7.7L266.4,159.7z M249.8,139.6c-4.4-10.6-6.9-16.6-7.5-18
					c-0.6-1.4-1.2-3.4-1.9-5.8h-0.2c-0.7,3.3-1.6,6.3-2.8,9.1l-6.1,14.7H249.8z"/>
				<path d="M315.1,159.7h-6.7v-39.5l-28.8,39.5h-7.3v-49h6.7v39.6l28.8-39.6h7.3V159.7z M307,99.4c-0.3,2.6-1.5,4.6-3.7,6.1
					c-2.2,1.5-5,2.2-8.4,2.2c-3.9,0-7.1-0.7-9.4-2.2c-2.3-1.4-3.6-3.5-3.8-6.2h5c1.1,2.8,3.6,4.2,7.7,4.2c4,0,6.5-1.4,7.6-4.2H307z"
					/>
				<path d="M369.8,159.7h-7.2v-23h-28.2v23h-7.2v-49h7.2v20.1h28.2v-20.1h7.2V159.7z"/>
			</g>
		</g>
	</g>
</g>
</svg>
