<svg id="10710f99-8332-47e7-89b1-e29bfabb292c" data-name="Слой 3" xmlns="http://www.w3.org/2000/svg"
     viewBox="0 0 266.89 266.89">
    <defs>
        <style>.\37 4b422f2-96e9-4e31-a15b-c2db8e765c61{fill:#fff;}</style>
    </defs>
    <path id="d7308a99-a610-440a-aa50-402647872743" data-name="White" class="74b422f2-96e9-4e31-a15b-c2db8e765c61"
          d="M252.16,0H14.73A14.73,14.73,0,0,0,0,14.73V252.16a14.73,14.73,0,0,0,14.73,14.73H142.56V163.54H107.78V123.26h34.78V93.55c0-34.47,21.05-53.24,51.81-53.24a285.37,285.37,0,0,1,31.08,1.59v36H204.12c-16.72,0-20,7.95-20,19.61v25.72H224l-5.19,40.28H184.15V266.89h68a14.73,14.73,0,0,0,14.73-14.73V14.73A14.73,14.73,0,0,0,252.16,0Z"/>
</svg>