<svg xmlns="http://www.w3.org/2000/svg" xmlns:xlink="http://www.w3.org/1999/xlink" viewBox="0 0 537.548 260.005"><defs><linearGradient id="a" x1="503.204" y1="294.2" x2="34.351" y2="-34.094" gradientUnits="userSpaceOnUse"><stop offset="0" stop-color="#55e3ca"/><stop offset="1" stop-color="#b07ec5"/></linearGradient></defs><title>logo</title><path d="M537.548,98.005V22A21.87,21.87,0,0,0,515.424,0H22.124A21.87,21.87,0,0,0,0,22V98.005a21.925,21.925,0,0,0,8.786,17.582A22.01,22.01,0,0,0,0,133.38V237.829a21.689,21.689,0,0,0,22.176,22.176h493.2a21.689,21.689,0,0,0,22.176-22.176V133.38a22.011,22.011,0,0,0-8.787-17.793A21.923,21.923,0,0,0,537.548,98.005Z" style="fill:url(#a)"/><path d="M22.124,100.005h9.6a1.8,1.8,0,0,0,2-2V75.9l3.7-7.1,12.6,29.7a2.209,2.209,0,0,0,2.3,1.5h10.6c1.6,0,2.2-1,1.5-2.3l-18.1-40.4,17-34.9c.7-1.4.1-2.4-1.4-2.4h-10.5a2.375,2.375,0,0,0-2.3,1.5L33.724,53V22a1.8,1.8,0,0,0-2-2h-9.6a1.8,1.8,0,0,0-2,2V98.005A1.8,1.8,0,0,0,22.124,100.005Z" style="fill:#fff"/><path d="M92.324,98.405V73.2h6.9l6.7,25.4a1.567,1.567,0,0,0,1.7,1.4h10.4c1.1,0,1.7-.6,1.4-1.8l-6.9-26.2c4.8-2.1,7.3-6.5,7.3-13.2V34.4c0-9.4-5-14.4-14.4-14.4h-25.1a1.472,1.472,0,0,0-1.6,1.6v76.8a1.471,1.471,0,0,0,1.6,1.6h10.4A1.472,1.472,0,0,0,92.324,98.405Zm0-65.2h9.9c2.6,0,4,1.4,4,4V56c0,2.6-1.4,4-4,4h-9.9Z" style="fill:#fff"/><path d="M167.824,98.606a1.537,1.537,0,0,0,1.6,1.4h10.6c1.2,0,1.6-.6,1.4-1.7l-16.6-76.9a1.556,1.556,0,0,0-1.7-1.4h-13.9a1.557,1.557,0,0,0-1.7,1.4l-16.6,76.9c-.3,1.1.2,1.7,1.3,1.7h10.7a1.536,1.536,0,0,0,1.6-1.4l2.7-14.6h17.8Zm-18.1-26.2,6.4-34.9,6.4,34.9Z" style="fill:#fff"/><path d="M218.024,20h-11.2c-9.3,0-14.4,5-14.4,14.4V58a3.565,3.565,0,0,0,2.7,3.7l23.7,7.8V82.8c0,2.7-1.4,4-4,4h-4.8c-2.5,0-4-1.3-4-4V75.1a1.389,1.389,0,0,0-1.6-1.6h-10.4a1.427,1.427,0,0,0-1.6,1.6v10.5c0,9.4,5.1,14.4,14.4,14.4h11.2c9.4,0,14.4-5,14.4-14.4V62.5a3.667,3.667,0,0,0-2.6-3.7l-23.8-7.8V37.2a3.634,3.634,0,0,1,4-4h4.8c2.7,0,4,1.4,4,4V45a1.472,1.472,0,0,0,1.6,1.6h10.4a1.427,1.427,0,0,0,1.6-1.6V34.4C232.425,25,227.425,20,218.024,20Z" style="fill:#fff"/><path d="M278.624,100.005h9.9a1.472,1.472,0,0,0,1.6-1.6V21.6a1.473,1.473,0,0,0-1.6-1.6h-10.4a1.428,1.428,0,0,0-1.6,1.6V63.8h-.6l-15.2-42.5a1.725,1.725,0,0,0-1.8-1.3h-9.9a1.472,1.472,0,0,0-1.6,1.6v76.8a1.471,1.471,0,0,0,1.6,1.6h10.4a1.427,1.427,0,0,0,1.6-1.6V56h.5l15.3,42.7A1.722,1.722,0,0,0,278.624,100.005Z" style="fill:#fff"/><path d="M345.124,85.605V34.4c0-9.4-5-14.4-14.4-14.4h-11.2c-9.4,0-14.4,5-14.4,14.4v51.2c0,9.4,5,14.4,14.4,14.4h11.2C340.124,100.005,345.124,95.005,345.124,85.605Zm-22.7,1.5c-2.6,0-4-1.3-4-4V36.9c0-2.6,1.4-4,4-4h5.8c2.6,0,4,1.4,4,4v46.2c0,2.7-1.4,4-4,4Z" style="fill:#fff"/><path d="M361.722,100.005h24c9.4,0,14.4-5,14.4-14.4V34.5c0-9.4-5-14.5-14.4-14.5h-24a1.428,1.428,0,0,0-1.6,1.6v76.8A1.389,1.389,0,0,0,361.722,100.005Zm12-66.8h9.2c2.6,0,4,1.4,4,4.1V82.8c0,2.7-1.4,4-4,4h-9.2Z" style="fill:#fff"/><path d="M445.124,21.4a1.557,1.557,0,0,0-1.7-1.4h-13.9a1.557,1.557,0,0,0-1.7,1.4l-16.6,76.9c-.3,1.1.2,1.7,1.3,1.7h10.7a1.536,1.536,0,0,0,1.6-1.4l2.7-14.6h17.8l2.8,14.6a1.536,1.536,0,0,0,1.6,1.4h10.6c1.2,0,1.6-.6,1.4-1.7Zm-15.1,51,6.4-34.9,6.4,34.9Z" style="fill:#fff"/><path d="M477.322,100.005h10.4a1.471,1.471,0,0,0,1.6-1.6V73.2h6.9l6.7,25.4a1.569,1.569,0,0,0,1.7,1.4h10.4c1.1,0,1.7-.6,1.4-1.8l-6.9-26.2c4.8-2.1,7.3-6.5,7.3-13.2V34.4c0-9.4-5-14.4-14.4-14.4h-25.1a1.472,1.472,0,0,0-1.6,1.6v76.8A1.471,1.471,0,0,0,477.322,100.005Zm12-66.8h9.9c2.6,0,4,1.4,4,4V56c0,2.6-1.4,4-4,4h-9.9Z" style="fill:#fff"/><path d="M54.816,131.2H22.176A1.941,1.941,0,0,0,20,133.38V237.829a1.889,1.889,0,0,0,2.176,2.176h32.64c12.784,0,19.584-6.8,19.584-19.584v-69.5C74.4,138.14,67.6,131.2,54.816,131.2Zm1.632,85.408c0,3.672-1.9,5.441-5.439,5.441H38.5v-72.9H51.009c3.535,0,5.439,1.905,5.439,5.577Z" style="fill:#fff"/><path d="M140.089,131.2H90.04A1.967,1.967,0,0,0,88,133.38V237.829a1.967,1.967,0,0,0,2.04,2.176h50.049c1.632,0,2.176-.816,2.176-2.176v-13.6c0-1.5-.544-2.176-2.176-2.176h-34V194.581h25.976a2.043,2.043,0,0,0,2.176-2.312V178.805a2.044,2.044,0,0,0-2.176-2.313H106.088v-27.2h34c1.632,0,2.176-.952,2.176-2.311v-13.6C142.265,132.02,141.721,131.2,140.089,131.2Z" style="fill:#fff"/><path d="M216.247,131.2h-12.92a2.826,2.826,0,0,0-2.992,2.449l-14.416,72.9-14.28-72.9a2.826,2.826,0,0,0-2.993-2.449h-12.92c-2.04,0-2.855,1.088-2.448,2.992l22.849,103.361a2.826,2.826,0,0,0,2.992,2.448h13.6a2.825,2.825,0,0,0,2.991-2.448L218.7,134.2C219.1,132.292,218.287,131.2,216.247,131.2Z" style="fill:#fff"/><path d="M298.527,131.2h-32.64a1.941,1.941,0,0,0-2.176,2.176V237.829a1.889,1.889,0,0,0,2.176,2.176h32.64c12.784,0,19.584-6.8,19.584-19.584v-69.5C318.111,138.14,311.311,131.2,298.527,131.2Zm1.632,85.408c0,3.672-1.9,5.441-5.439,5.441H282.207v-72.9H294.72c3.535,0,5.439,1.905,5.439,5.577Z" style="fill:#fff"/><path d="M372.512,133.108a2.116,2.116,0,0,0-2.312-1.9H351.3a2.117,2.117,0,0,0-2.313,1.9L326.407,237.693c-.408,1.5.273,2.312,1.769,2.312h14.551a2.089,2.089,0,0,0,2.176-1.9l3.672-19.857h24.209l3.808,19.857a2.089,2.089,0,0,0,2.175,1.9h14.417c1.632,0,2.176-.816,1.9-2.312Zm-20.537,69.361L360.68,155l8.7,47.465Z" style="fill:#fff"/><path d="M453.3,131.2H439.7a2.963,2.963,0,0,0-3.128,2.176l-15.232,39.032L406.1,133.38a2.964,2.964,0,0,0-3.128-2.176h-13.6c-2.04,0-2.992,1.224-2.176,3.128l24.889,60.521v42.432a2.441,2.441,0,0,0,2.719,2.72h13.057a2.441,2.441,0,0,0,2.72-2.72V194.853l24.888-60.521C456.288,132.428,455.336,131.2,453.3,131.2Z" style="fill:#fff"/><path d="M500.624,167.38h14.143a1.941,1.941,0,0,0,2.177-2.176V150.788c0-12.784-6.8-19.584-19.585-19.584H482.128c-12.649,0-19.584,6.8-19.584,19.584v32.1a4.849,4.849,0,0,0,3.672,5.032l32.231,10.608v18.087c0,3.672-1.9,5.441-5.439,5.441h-6.529c-3.4,0-5.44-1.769-5.44-5.441V206.141a1.889,1.889,0,0,0-2.176-2.176H464.72a1.941,1.941,0,0,0-2.176,2.176v14.28c0,12.784,6.935,19.584,19.584,19.584h15.231c12.784,0,19.585-6.8,19.585-19.584V189.005c0-2.584-1.224-4.08-3.536-5.032l-32.369-10.609V154.6c0-3.535,2.04-5.44,5.44-5.44h6.529c3.672,0,5.439,1.905,5.439,5.44V165.2A2,2,0,0,0,500.624,167.38Z" style="fill:#fff"/></svg>