<?xml version="1.0" encoding="utf-8"?>
<!-- Generator: Adobe Illustrator 21.1.0, SVG Export Plug-In . SVG Version: 6.00 Build 0)  -->
<svg version="1.1" id="Слой_1" xmlns="http://www.w3.org/2000/svg" xmlns:xlink="http://www.w3.org/1999/xlink" x="0px" y="0px"
	 viewBox="0 0 2500 2500" style="enable-background:new 0 0 2500 2500;" xml:space="preserve">
<style type="text/css">
	.st0{fill:#FFFFFF;}
</style>
<path class="st0" d="M2114.8,0H385.2C172.5,0,0,172.5,0,385.2v1729.5C0,2327.5,172.5,2500,385.2,2500h1729.5
	c212.7,0,385.2-172.5,385.2-385.2V385.2C2500,172.5,2327.5,0,2114.8,0z M2024.7,1750.1l-228.5,3.2c0,0-49.1,9.7-113.7-34.7
	c-85.4-58.7-166.1-211.2-228.9-191.3c-63.7,20.2-61.7,157.4-61.7,157.4s0.5,29.3-14.1,44.9c-15.8,17-46.7,20.4-46.7,20.4H1229v0
	c0,0-225.6,13.6-424.4-193.3c-216.7-225.7-408.1-673.4-408.1-673.4s-11-29.3,1-43.6c13.5-16,50.2-17,50.2-17l244.5-1.6
	c0,0,23,3.8,39.5,15.9c13.6,10,21.2,28.7,21.2,28.7s39.5,99.9,91.8,190.3c102.1,176.5,149.7,215.1,184.4,196.2
	c50.5-27.6,35.4-249.5,35.4-249.5s0.9-80.5-25.4-116.4c-20.4-27.8-58.9-35.9-75.9-38.2c-13.8-1.8,8.8-33.8,38.1-48.1
	c44-21.6,121.7-22.8,213.5-21.8c71.5,0.7,92.1,5.2,120.1,11.9c84.3,20.3,55.7,98.9,55.7,287.5c0,60.3-10.9,145.3,32.7,173.4
	c18.7,12.1,64.5,1.8,179.1-192.7c54.3-92.2,95-200.6,95-200.6s8.9-19.3,22.7-27.6c14.1-8.5,33.2-5.9,33.2-5.9l257.3-1.6
	c0,0,77.3-9.2,89.8,25.7c13.1,36.6-28.9,122.1-134,262.2c-172.6,230-191.8,208.5-48.5,341.5c136.9,127,165.2,188.9,169.9,196.6
	C2144.3,1742.7,2024.7,1750.1,2024.7,1750.1z"/>
</svg>
