<svg xmlns="http://www.w3.org/2000/svg" viewBox="0 0 132.6 39.2"><path fill="#dc1e35" d="M128.8 0c-1.5 0-2.6.9-3.8 1.9l-11.6 9.2c-.9.7-1.8 2.1-1.6 3.4a3 3 0 0 0 1.9 2.4c.4.2.9.3 1.5.3l2.1-.3.6-.1h.1l2-.2c.8 0 1.6.2 2.4.5 1.7.8 2.5 2.3 3 3.3v.1l.2.5c.4 1 1 2.3 2.3 2.8l1.5.3c.8 0 1.5-.3 2.1-.9 1-1 1.1-2.6 1.1-3V5.4c0-1.8 0-3.9-2.3-5-.4-.2-.9-.4-1.5-.4m0 1.5l1 .2c1.4.7 1.5 1.8 1.4 3.7v14.9c0 .9-.4 2.4-1.8 2.4l-1-.2c-1-.4-1.4-1.9-1.8-2.7-.5-1-1.5-3-3.7-4-1-.5-2-.7-3.1-.7-1 0-1.8.2-2.4.3-.6.1-1.5.4-2.3.4-.3 0-.6 0-.9-.2-2-.9-.9-2.7 0-3.4L125.8 3c1.2-.8 2.1-1.5 3-1.5"/><path d="M21.3 39H20V25h1.3v2.6a5.3 5.3 0 0 1 4.6-2.8c.9 0 1.6.1 2.2.4l.1.1v1.5l-.3-.1c-.8-.4-1.4-.5-2.2-.5-2.6 0-4.5 2.4-4.5 5.6V39h.1zm29.5-12.9c-3.8 0-6.2 2.2-6.2 5.9s2.4 5.9 6.2 5.9c2.2 0 4.1-.6 5.3-1.9v-8.1a8.5 8.5 0 0 0-5.3-1.8m-.1 13.1c-4.6 0-7.5-2.8-7.5-7.2 0-4.3 3-7.1 7.5-7.1 1.9 0 3.7.5 5.3 1.6v-1.4h1.3v14H56v-1.4a9.9 9.9 0 0 1-5.3 1.5m17.2-13.1c-3.8 0-6.2 2.2-6.2 5.9s2.4 5.9 6.2 5.9c2.1 0 4-.7 5.3-1.9v-8.1a8.5 8.5 0 0 0-5.3-1.8m-.1 13.1c-4.6 0-7.5-2.8-7.5-7.2 0-4.3 3-7.1 7.5-7.1 2 0 3.9.6 5.3 1.6v-6.9h1.3V39h-1.3v-1.4a8.3 8.3 0 0 1-5.3 1.6m11.4-16.4c-.6 0-1.2-.5-1.2-1.1s.5-1.1 1.2-1.1 1.2.5 1.2 1.1c-.1.6-.6 1.1-1.2 1.1m.6 16.2h-1.3V25h1.3v14zm9.7.2c-4.2 0-6-1.9-6-6.1V25h1.3v8.1c0 3.4 1.4 4.8 4.8 4.8 2 0 4.1-.7 5.4-1.9V25h1.3v14H95v-1.5a9.7 9.7 0 0 1-5.5 1.7m32.8-.2H121v-8.2c0-3.3-1.3-4.7-4.2-4.7-2.3 0-4 .9-5.2 1.7.3.8.4 1.8.4 3V39h-1.3v-8.2c0-3.3-1.2-4.7-4.1-4.7-2.4 0-4 .9-5.2 1.8V39H100V25h1.3v1.5a10 10 0 0 1 5.3-1.7c2.1 0 3.6.6 4.4 1.9a10 10 0 0 1 5.8-1.9c3.7 0 5.4 1.9 5.4 6V39h.1zM4.4 32.6l4.5-9.9 4.6 9.9H4.4zm12 6.4h1.5L9.5 20.9l-.1-.1h-1L0 39h1.5l2.3-5.1h10.3l2.3 5.1zm25.9 0zM31.8 22.7v-3.1h-1.3V39h1.3V22.7zm2.9 8.7l7.2-6.2h-2.1l-7.2 6.2 8.1 7.4h2.2l-8.2-7.4z"/></svg>