<svg xmlns="http://www.w3.org/2000/svg" width="165" height="48"><g fill="none" fill-rule="nonzero"><circle cx="34.04" cy="34.54" r="12.6" fill="#97CF26"/><circle cx="10.35" cy="34.54" r="5.86" fill="#A169F7"/><circle cx="34.04" cy="10.86" r="8.11" fill="#FF6163"/><circle cx="10.35" cy="10.86" r="10.35" fill="#0AF"/><path fill="#000" d="M79.4 40.34h6.53L73.83 7.36h-4.75L56.96 40.34h6.54l2.32-6.3h11.26l2.31 6.3-11.75-11.26 3.8-10.37 3.82 10.37h-7.62zM102.15 17.82l-6.02 16.39-6.02-16.39h-6.14l8.27 22.52h7.78l8.27-22.52h-6.14"/><g fill="#000" transform="translate(110 7.3)"><path d="M.86 10.53h6.15v22.51H.86z"/><circle cx="3.96" cy="4.01" r="3.96"/></g><path fill="#000" d="M138.7 22.78v-4.96h-7.35v-6.2h-6.15v6.2h-4.86v4.96h4.86v9.7c0 4.99 2.5 8.32 8.88 8.32 2.47 0 4.63-.9 4.63-.9l-.75-4.86s-1.2.36-2.7.36c-1.82 0-3.91-.79-3.91-3.3v-9.32h7.36M152.8 35.2a6.14 6.14 0 0 1-6.2-6.07 6.14 6.14 0 0 1 6.2-6.07c3.43 0 6.2 2.72 6.2 6.07a6.13 6.13 0 0 1-6.2 6.06m0-17.94c-6.66 0-12.06 5.28-12.06 11.8 0 6.51 5.4 11.8 12.06 11.8s12.06-5.29 12.06-11.8c0-6.52-5.4-11.8-12.06-11.8"/></g></svg>