<svg xmlns="http://www.w3.org/2000/svg" width="262" height="68"><g fill="#0062A1" fill-rule="evenodd"><path d="M79 0v19.48h3.96V3.29h4.02v16.19h3.96V0H79zm25.35 13.75c.07-.24.1-.5.1-.74 0-.32.06-.7.06-1.22a9.2 9.2 0 0 0-.64-3.62 4.73 4.73 0 0 0-1.69-2.28c-.8-.5-1.74-.76-2.69-.74-.82 0-1.62.16-2.37.48a6.1 6.1 0 0 0-1.85 1.49A8.63 8.63 0 0 0 94 9.5a12.17 12.17 0 0 0-.42 3.19c0 1.48.2 2.76.68 3.77a5.48 5.48 0 0 0 2.11 2.39 6.8 6.8 0 0 0 3.38.79c.52 0 1.03 0 1.54-.05.46-.06.92-.15 1.37-.27.42-.04.83-.15 1.21-.32l-.58-2.7c-.4.12-.8.23-1.21.31-.52.12-1.05.17-1.58.16-.55.01-1.09-.1-1.59-.31-.46-.2-.85-.53-1.1-.96a3.3 3.3 0 0 1-.43-1.75h6.97zm-6.97-2.66c0-.37.05-.75.16-1.1.05-.36.15-.7.31-1.02.13-.29.31-.56.53-.8.24-.2.54-.31.85-.31.36-.02.71.14.95.42.27.34.45.74.52 1.17.16.53.23 1.09.22 1.64h-3.54zm9.3 13.91h3.95v-6.69h.05c.17.24.37.45.58.64.22.24.5.42.8.53.35.16.73.23 1.1.22.63 0 1.25-.14 1.8-.43.6-.33 1.12-.79 1.54-1.33a7.6 7.6 0 0 0 1.05-2.28c.27-1.06.4-2.14.37-3.23.01-.95-.06-1.89-.21-2.82a8.8 8.8 0 0 0-.85-2.29 4.17 4.17 0 0 0-1.42-1.59 3.4 3.4 0 0 0-2.06-.58 3.56 3.56 0 0 0-1.85.48c-.52.33-.96.79-1.27 1.33h-.05l-.2-1.6h-3.44c.05.64.05 1.38.1 2.12V25zm3.95-14.49a2 2 0 0 1 .05-.53c0-.17.07-.34.17-.48.03-.21.12-.42.26-.58.1-.2.27-.35.48-.43.16-.12.37-.2.58-.2.58.04 1.05.36 1.37 1.06.31.74.42 1.74.47 3.08 0 .53-.04 1.05-.1 1.58-.04.46-.15.9-.32 1.33a3.3 3.3 0 0 1-.58.96c-.25.2-.57.32-.9.31a.8.8 0 0 1-.47-.1 1.1 1.1 0 0 1-.42-.32c-.18-.2-.3-.43-.37-.7a3.14 3.14 0 0 1-.17-.52c-.04-.2-.06-.42-.05-.64v-3.82zm9.56 8.97c.32.06.63.06 1 .1.43 0 .8.06 1.27.06h1.38c.47 0 1.05 0 1.63-.05.58-.05 1.11-.11 1.74-.21a8.21 8.21 0 0 0 3.07-1.22c.4-.33.74-.73 1-1.17.24-.52.37-1.08.37-1.65 0-.54-.15-1.07-.42-1.54-.3-.46-.7-.86-1.16-1.16a4.94 4.94 0 0 0-1.9-.64v-.06c.5-.1.99-.3 1.42-.58a4 4 0 0 0 1-1.11c.29-.47.43-1 .43-1.54a2.93 2.93 0 0 0-.42-1.6c-.31-.43-.7-.79-1.17-1.06a6 6 0 0 0-1.53-.58 9.98 9.98 0 0 0-1.74-.27c-.58-.05-1.16-.05-1.7-.05H123c-.54.05-1.01.05-1.49.1l-1.32.17v14.06zM124 7.7c.33-.1.67-.13 1-.1.75 0 1.28.1 1.7.42.41.26.66.72.63 1.22.01.34-.1.68-.32.96-.23.28-.54.48-.9.58-.38.15-.8.23-1.2.2h-.9V7.7zm0 5.73h.9c.49-.01.97.06 1.43.21.42.16.79.32 1 .64.26.3.4.67.42 1.06-.05.48-.16.85-.42 1.12-.28.26-.63.46-1 .58-.43.1-.88.16-1.32.16h-.53a3.15 3.15 0 0 1-.48-.1v-3.67zm19.8-2.44c.01-.57-.04-1.14-.15-1.7a5.05 5.05 0 0 0-1.32-2.92c-.42-.4-.93-.71-1.48-.9a7.1 7.1 0 0 0-2.27-.32 9.3 9.3 0 0 0-4.6 1.06l.75 2.55c.43-.27.89-.48 1.37-.64.53-.13 1.08-.2 1.63-.21.4.03.8.12 1.17.26a1.75 1.75 0 0 1 .9 1.65v.32a9.07 9.07 0 0 0-3.8.8c-.58.26-1.1.62-1.54 1.06-.44.4-.8.9-1.06 1.43-.24.63-.36 1.3-.37 1.97-.02.77.16 1.54.53 2.22a3.9 3.9 0 0 0 1.37 1.54c.6.37 1.3.56 2.01.54a3.9 3.9 0 0 0 3.28-1.6h.05l.21 1.38h3.54c-.1-.5-.16-1.02-.16-1.54-.05-.58-.05-1.12-.05-1.7V11zm-3.9 4.09v.32c0 .1-.05.2-.05.31-.1.26-.24.5-.43.7a1.5 1.5 0 0 1-.58.41c-.2.07-.42.1-.63.11a1 1 0 0 1-.63-.2 1.52 1.52 0 0 1-.59-.6c-.13-.35-.2-.73-.2-1.11-.03-.43.08-.85.31-1.22a2 2 0 0 1 .74-.74c.32-.16.66-.26 1-.32.35-.07.7-.13 1.06-.16v2.5zM157 5.52l-1.16-.16c-.43-.05-.9-.05-1.42-.1h-1.59c-.63 0-1.32.05-1.95.1-.57.07-1.14.18-1.7.32-.44.13-.87.33-1.26.59a3.6 3.6 0 0 0-1.27 1.27c-.34.54-.5 1.17-.47 1.8a3 3 0 0 0 1.74 2.82c.53.29 1.1.5 1.69.63v.05a4.64 4.64 0 0 0-1.75.96c-.25.27-.47.57-.63.9-.2.35-.37.7-.53 1.07l-.31 1.11c-.16.37-.21.74-.32 1.06l-.32.8c-.16.26-.31.53-.42.74h4.07c.12-.16.2-.34.26-.53l.16-.53c.1-.42.26-.85.37-1.27.09-.42.21-.83.37-1.22.1-.37.25-.71.48-1.01a2.13 2.13 0 0 1 1.16-.91c.15-.05.37-.05.63-.1h.37v5.57h3.8V5.52zm-3.8 6.16h-.58c-.44 0-.87-.1-1.27-.27a3.14 3.14 0 0 1-.9-.74 2 2 0 0 1-.31-1.11c0-.64.2-1.12.63-1.44.45-.36 1.01-.55 1.58-.53.16 0 .32.05.48.05.1 0 .26.06.37.06v3.98zM92.38 43.48h3.5L94.68 24h-4.13l-1.57 7.06c-.26 1.22-.52 2.39-.73 3.5-.26 1.12-.42 2.23-.57 3.3h-.06c-.15-1.07-.42-2.18-.62-3.3-.27-1.1-.53-2.28-.79-3.5L84.59 24h-4.13L79 43.48h3.34l.37-6.74c0-.69.05-1.38.1-2.07.06-.74.06-1.48.1-2.23.06-.8.06-1.48.06-2.23h.1c.1.75.22 1.44.37 2.18.16.74.32 1.43.42 2.12.16.7.32 1.27.47 1.8L86 43.17h2.77l1.72-6.95c.11-.53.27-1.12.43-1.75.15-.7.3-1.38.47-2.07.1-.74.26-1.49.36-2.18h.1v2.23c0 .74.06 1.49.11 2.23 0 .7.05 1.38.05 2.02l.37 6.8zm11.13-14.33c-1.48-.03-2.9.61-3.87 1.75-.57.66-1 1.44-1.25 2.29a11.8 11.8 0 0 0-.53 3.29c.02 1.33.24 2.66.68 3.92a5.04 5.04 0 0 0 4.91 3.3c.5 0 .99-.06 1.47-.17.52-.16 1-.4 1.46-.69.52-.37.98-.82 1.36-1.33.43-.64.74-1.36.94-2.11.27-.99.4-2.01.37-3.03 0-1.49-.21-2.76-.68-3.82a5.48 5.48 0 0 0-1.89-2.55 5 5 0 0 0-2.97-.85zm0 2.86c.3 0 .6.13.78.38.27.3.45.66.52 1.06a10.15 10.15 0 0 1 .32 2.92c0 .53 0 1.06-.05 1.59-.06.48-.14.96-.27 1.43-.08.37-.24.71-.47 1.01a.99.99 0 0 1-.78.43c-.33.01-.66-.12-.89-.37-.25-.27-.43-.6-.52-.96a5.21 5.21 0 0 1-.31-1.43c-.05-.57-.07-1.13-.06-1.7a9.54 9.54 0 0 1 .32-2.92c.1-.39.27-.75.52-1.06.23-.25.55-.39.89-.38zm7.73-2.65v14.12h3.92v-5.57h3.08v5.57h3.92V29.36h-3.92v5.37h-3.08v-5.37h-3.92zm13.7 0v14.12h3.6c.2-.42.47-.9.68-1.43.26-.54.47-1.06.67-1.6a10 10 0 0 0 .63-1.38 12 12 0 0 1 .42-1c.21-.48.37-.9.52-1.33.18-.43.32-.87.42-1.33.16-.42.32-.9.48-1.38h.1c-.06.48-.06.96-.1 1.38 0 .48-.06.96-.06 1.44-.05.48-.05 1-.1 1.59v5.04h3.55V29.36h-3.71l-2.2 5.37c-.15.36-.36.79-.52 1.26-.2.49-.36.96-.57 1.44-.21.48-.37 1-.53 1.49h-.1a48.87 48.87 0 0 0 .26-3.99c.05-.84.05-1.64.05-2.54v-3.03h-3.5zm12.43 0v3.08h3.29v11.04h3.92V32.44h3.24v-3.08h-10.45zm17.3-.2a5.02 5.02 0 0 0-3.92 1.74c-.58.66-1 1.44-1.26 2.28-.33 1.07-.5 2.18-.47 3.3-.03 1.33.18 2.66.63 3.92a5.04 5.04 0 0 0 4.91 3.3 7 7 0 0 0 1.46-.17 5.12 5.12 0 0 0 2.82-2.02c.43-.64.75-1.36.94-2.12a12.3 12.3 0 0 0-.26-6.84A5.94 5.94 0 0 0 157.6 30a4.85 4.85 0 0 0-2.92-.85zM154.6 32c.32 0 .62.14.84.38.23.31.39.68.47 1.06.15.46.23.94.26 1.43.04.5.06 1 .05 1.49.01.53 0 1.06-.05 1.59-.03.49-.11.97-.26 1.43-.08.37-.24.71-.47 1.01a1.03 1.03 0 0 1-1.62.06 2.1 2.1 0 0 1-.58-.96 5.22 5.22 0 0 1-.26-1.43 8.67 8.67 0 0 1-.1-1.7 10.14 10.14 0 0 1 .31-2.92c.12-.38.3-.74.53-1.06.22-.25.55-.39.88-.38zM162.35 49h3.91v-6.69h.06c.16.23.33.44.52.64.25.23.53.4.84.53.33.15.68.23 1.04.21a3.98 3.98 0 0 0 3.29-1.75c.51-.68.89-1.45 1.1-2.28a14.5 14.5 0 0 0 .1-6.05 7.2 7.2 0 0 0-.78-2.28 4.17 4.17 0 0 0-1.4-1.6c-.63-.4-1.36-.6-2.1-.58a3.28 3.28 0 0 0-1.78.48c-.51.33-.95.79-1.25 1.33h-.05l-.21-1.6h-3.4c0 .64.05 1.38.05 2.13.06.68.06 1.48.06 2.33V49zm3.91-14.49c0-.18.02-.36.06-.53 0-.17.04-.33.1-.48.05-.22.16-.42.32-.58.1-.18.24-.33.42-.43.17-.1.37-.18.57-.2.63.05 1.04.36 1.36 1.05.3.75.47 1.75.47 3.08.02.53-.02 1.07-.1 1.6-.04.45-.15.9-.32 1.32-.1.35-.28.68-.52.96-.25.2-.57.32-.9.32a.76.76 0 0 1-.46-.11.83.83 0 0 1-.42-.32c-.17-.2-.3-.44-.36-.7a.8.8 0 0 1-.16-.52c-.05-.2-.07-.42-.06-.64v-3.82zm9.46-5.15v14.12h3.66l.68-1.43c.2-.54.42-1.06.68-1.6.21-.47.42-.95.58-1.38.2-.42.3-.79.41-1 .21-.48.37-.9.52-1.33.16-.42.32-.85.48-1.33.16-.42.26-.9.41-1.38h.11c0 .48-.05.96-.05 1.38-.06.48-.1.96-.1 1.43 0 .49-.06 1.02-.06 1.6 0 .58-.05 1.22-.05 1.96v3.08h3.55V29.36h-3.65l-2.25 5.37c-.16.36-.32.79-.53 1.26-.15.49-.36.96-.57 1.44-.16.48-.36 1-.52 1.49h-.06c.07-.58.1-1.17.1-1.76.06-.68.12-1.43.16-2.23v-5.57h-3.5zm13.54 0v14.12h3.92v-5.57h3.08v5.57h3.92V29.36h-3.92v5.37h-3.08v-5.37h-3.92zm13.64 0v14.12h3.92V32.49H211v-3.13h-8.1zm14.94-.2a4.8 4.8 0 0 0-2.09.41 5.51 5.51 0 0 0-3.08 3.61c-.34 1.07-.5 2.18-.47 3.3-.02 1.34.21 2.67.68 3.92.38 1 1.06 1.85 1.93 2.44.79.59 1.83.85 2.98.85.47 0 .95-.05 1.41-.16a5.35 5.35 0 0 0 1.52-.69 6.04 6.04 0 0 0 2.3-3.45c.24-.99.36-2 .36-3.02.02-1.3-.21-2.6-.68-3.82a5.44 5.44 0 0 0-1.88-2.55 5.02 5.02 0 0 0-2.98-.85zm0 2.85c.3 0 .6.13.78.38.23.32.4.68.53 1.06a10.5 10.5 0 0 1 .31 2.92c0 .53 0 1.06-.05 1.59-.05.48-.14.96-.26 1.43-.1.36-.26.7-.47 1.01a.99.99 0 0 1-.79.43c-.33.02-.66-.12-.88-.37a2.7 2.7 0 0 1-.58-.96 15.99 15.99 0 0 1-.37-3.13c.01-.5.05-1 .11-1.49.03-.49.11-.97.26-1.43.08-.4.26-.76.52-1.06.23-.26.56-.4.9-.38zm7.74 11.47c.31.05.62.05.99.1.42 0 .78.06 1.25.06h1.36c.47 0 1.05 0 1.57-.05.57-.06 1.15-.11 1.72-.22a8.16 8.16 0 0 0 3.09-1.22c.4-.32.73-.72.99-1.16.24-.52.36-1.08.37-1.65a3.2 3.2 0 0 0-.43-1.54 4 4 0 0 0-1.14-1.17 5.05 5.05 0 0 0-1.88-.64v-.05c.5-.1.98-.3 1.4-.58.4-.3.74-.68 1-1.11.28-.47.42-1 .42-1.54a3 3 0 0 0-.42-1.6c-.3-.43-.7-.8-1.15-1.06a5.68 5.68 0 0 0-1.51-.58c-.58-.11-1.15-.21-1.73-.27-.57-.05-1.15-.05-1.67-.05h-1.46c-.53.05-1 .05-1.47.1l-1.3.16v14.07zm3.76-11.78c.32-.1.66-.13 1-.11.72 0 1.24.1 1.66.42.41.27.65.73.63 1.23 0 .34-.1.68-.32.95-.23.27-.54.48-.88.59-.38.15-.8.22-1.2.2h-.9V31.7zm0 5.73h.89c.48-.02.95.06 1.4.21.39.12.73.34 1 .64.26.29.39.67.37 1.06.03.4-.1.81-.37 1.12a2.3 2.3 0 0 1-1 .58c-.44.1-.9.16-1.35.16h-.52c-.16-.05-.32-.05-.42-.1v-3.67zm19.54-2.44a9.3 9.3 0 0 0-.1-1.7 5.13 5.13 0 0 0-1.3-2.92 3.94 3.94 0 0 0-1.52-.9 6.64 6.64 0 0 0-2.2-.32 10.5 10.5 0 0 0-3.5.58 6.9 6.9 0 0 0-1.05.48l.68 2.55c.45-.27.92-.48 1.42-.64.53-.13 1.07-.2 1.62-.21.37.02.75.1 1.1.26.3.15.56.39.72.7.16.29.23.62.21.95v.32c-.66.02-1.33.09-1.98.21-.63.14-1.24.34-1.83.58a6 6 0 0 0-2.51 2.5 4.75 4.75 0 0 0-.37 1.96c-.02.78.16 1.55.53 2.23a3.5 3.5 0 0 0 3.34 2.07c.61.01 1.22-.11 1.78-.37.56-.28 1.04-.7 1.4-1.22h.06l.2 1.38h3.56c-.1-.51-.16-1.02-.2-1.54 0-.58-.06-1.12-.06-1.7V35zm-3.81 4.08v.32c0 .1-.05.22-.05.32-.1.26-.24.49-.42.69-.16.19-.35.34-.58.43-.2.06-.41.1-.63.1-.21 0-.43-.05-.62-.16a2.29 2.29 0 0 1-.58-.64 2.2 2.2 0 0 1-.2-1.1 2.1 2.1 0 0 1 .3-1.23c.18-.3.43-.57.74-.74.31-.17.65-.27 1-.32.33-.09.69-.12 1.04-.1v2.43zM262 29.52l-1.15-.16c-.42-.05-.89-.05-1.41-.1h-1.57c-.68 0-1.3.05-1.94.1-.56.07-1.12.18-1.67.32a4.7 4.7 0 0 0-1.25.58 3.62 3.62 0 0 0-1.73 3.08 3.06 3.06 0 0 0 1.73 2.81c.52.3 1.09.52 1.67.64v.05c-.36.1-.71.25-1.04.43-.25.16-.5.34-.73.53-.21.27-.42.58-.63.9l-.47 1.07c-.1.36-.26.74-.37 1.11-.1.35-.19.7-.26 1.06-.1.27-.22.54-.37.8-.1.26-.24.51-.41.74h4.07c.1-.17.19-.35.27-.53l.15-.53.32-1.27c.15-.43.26-.85.36-1.23.13-.35.3-.7.53-1a1.94 1.94 0 0 1 1.15-.9c.2-.06.41-.08.62-.06h.37v5.52H262V29.52zm-3.76 6.16h-.58a3.1 3.1 0 0 1-1.25-.27 2.46 2.46 0 0 1-.89-.74 2 2 0 0 1-.31-1.12c-.03-.54.18-1.06.57-1.43a2.59 2.59 0 0 1 1.62-.53c.16 0 .31.05.42.05.15 0 .31.06.42.06v3.98zM79 48v19.78h3.83v-8.4h.32c.46-.03.92.15 1.26.48.38.35.67.8.84 1.3.22.66.4 1.35.52 2.04l.47 2.32c.22.8.42 1.56.63 2.26h3.94c-.3-.92-.54-1.85-.73-2.8l-.63-2.8c-.18-.76-.41-1.5-.69-2.22a6.02 6.02 0 0 0-1-1.72 4.06 4.06 0 0 0-1.67-1.08L90.76 48h-4.3l-3.31 8.62h-.32V48H79zm18.43 5.17c-.74 0-1.48.17-2.16.49-.7.28-1.31.74-1.78 1.35a6.4 6.4 0 0 0-1.26 2.32c-.34 1.08-.5 2.2-.47 3.34-.03 1.34.18 2.67.63 3.93a5.03 5.03 0 0 0 4.94 3.4c.49 0 .99-.07 1.46-.22a4.05 4.05 0 0 0 1.47-.7c.55-.35 1.01-.8 1.37-1.35.46-.62.78-1.33.95-2.1.27-1 .39-2.03.36-3.07a11.2 11.2 0 0 0-.63-3.94 5.95 5.95 0 0 0-1.94-2.53 5.37 5.37 0 0 0-2.94-.92zm-.05 2.92c.32.02.63.17.84.43a6.04 6.04 0 0 1 .73 2.53c.05.5.06 1 .05 1.51.01.54 0 1.08-.05 1.62-.03.47-.12.94-.26 1.4-.07.39-.23.76-.47 1.07a1 1 0 0 1-.79.44 1.24 1.24 0 0 1-.84-.38c-.28-.26-.48-.6-.58-.97a5.8 5.8 0 0 1-.26-1.45 9.12 9.12 0 0 1-.1-1.73 10.4 10.4 0 0 1 .31-2.97c.12-.38.3-.74.52-1.07.23-.27.55-.43.9-.44zm7.4 11.7h3.57l.1-5.02c.05-.5.07-1 .06-1.51 0-.6.05-1.24.05-2 0-.75.05-1.61.05-2.58h.05c.06.38.16.8.27 1.3l.31 1.6a74.3 74.3 0 0 0 .63 2.97l1.16 4.96h3.2l1.1-4.9c.16-.54.27-1.14.37-1.67.16-.6.26-1.13.37-1.68.1-.53.2-1.02.31-1.45.06-.43.16-.8.21-1.13h.05c0 1.02.06 1.89.06 2.64 0 .7.05 1.35.05 1.94 0 .54.05 1.03.05 1.51l.16 5.01h3.67l-.94-14.34h-4.94l-1 4.59c-.1.37-.15.75-.26 1.18-.1.43-.15.87-.26 1.35-.1.49-.2 1.02-.37 1.62h-.05c-.15-.6-.26-1.14-.36-1.62a16.1 16.1 0 0 1-.37-1.35c-.07-.4-.15-.8-.27-1.18l-1.1-4.59h-4.88l-1.05 14.34zm18.16-14.35v14.34h3.94V56.52h3.1v11.26h3.88V53.44h-10.92zm23.58 5.72c0-.6-.05-1.18-.1-1.73a7.27 7.27 0 0 0-.42-1.61 3.89 3.89 0 0 0-2.42-2.27 8.78 8.78 0 0 0-2.26-.38c-.68.06-1.31.11-1.89.22-.54.07-1.07.22-1.57.43-.39.12-.76.28-1.1.49l.73 2.53c.44-.23.9-.43 1.36-.6.54-.12 1.08-.2 1.63-.2.4-.01.8.08 1.16.26.3.15.54.4.68.7.17.3.26.63.26.98v.32a8.07 8.07 0 0 0-2 .21c-.63.12-1.24.31-1.83.6-.54.27-1.06.62-1.52 1.02a4.96 4.96 0 0 0-1.37 3.5c-.02.79.15 1.56.48 2.27 1 1.9 3.3 2.65 5.2 1.67a4.26 4.26 0 0 0 1.4-1.19h.06l.21 1.4h3.52a80.3 80.3 0 0 1-.16-1.61c-.05-.54-.05-1.14-.05-1.67v-5.34zm-3.83 4.1c0 .12 0 .25-.05.37 0 .11-.02.22-.06.32-.09.27-.23.5-.42.7-.15.18-.35.31-.58.38-.2.1-.4.16-.63.17a1 1 0 0 1-.62-.22 1.5 1.5 0 0 1-.53-.6 2.66 2.66 0 0 1-.27-1.18c-.01-.42.1-.83.32-1.18.2-.32.47-.58.79-.76a5.4 5.4 0 0 1 1-.37c.34-.07.7-.1 1.05-.11v2.47zm6.61-9.82v14.34h3.94v-5.66h3.1v5.66h3.94V53.44h-3.94v5.4h-3.1v-5.4h-3.94zm13.7 0v14.34h3.68c.21-.48.42-.91.68-1.45.21-.54.47-1.08.68-1.62.21-.54.43-.97.64-1.46.15-.43.31-.75.41-1.02l.48-1.3c.16-.42.31-.9.47-1.35.17-.45.31-.92.42-1.4h.1c0 .5-.05.92-.05 1.4-.05.44-.05.93-.1 1.46 0 .5-.05 1.03-.05 1.62v5.12h3.57V53.44h-3.73l-2.26 5.45-.53 1.3c-.15.42-.36.9-.52 1.45-.2.49-.38 1-.52 1.5h-.11l.16-1.77c0-.7.05-1.46.1-2.32 0-.8.06-1.67.06-2.53v-3.08H163zm24 .17a8.56 8.56 0 0 0-1.16-.17c-.42-.05-.89-.05-1.41-.1h-1.58c-.65-.02-1.3.01-1.94.1-.57.05-1.13.16-1.68.33-.46.1-.88.3-1.26.59-.54.29-.98.74-1.26 1.3a3.6 3.6 0 0 0 0 3.55c.34.46.77.84 1.26 1.13.54.28 1.1.5 1.68.65v.05c-.36.11-.71.26-1.05.44-.26.13-.5.32-.69.54-.25.27-.46.57-.62.9-.2.35-.39.72-.53 1.1-.1.37-.26.75-.36 1.12-.11.38-.16.7-.27 1.03-.1.32-.2.59-.31.86-.16.27-.32.54-.42.75h4.04c.1-.16.16-.38.26-.53l.16-.55c.1-.44.22-.87.37-1.3.1-.42.2-.85.31-1.23.14-.37.32-.74.53-1.08a2.22 2.22 0 0 1 1.78-.97h.37v5.66H187V53.61zm-3.78 6.2a.48.48 0 0 1-.26.05h-.32c-.43 0-.86-.1-1.26-.28-.35-.19-.66-.46-.9-.8-.2-.32-.32-.7-.3-1.08-.03-.56.18-1.1.57-1.5a2.55 2.55 0 0 1 1.63-.5c.14 0 .29.01.42.06.14-.02.29 0 .42.06v3.99zM22.67 0A22.62 22.62 0 0 0 0 22.67V68h45.33A22.76 22.76 0 0 0 68 45.33V0H22.67zm3.76 11.33a15.09 15.09 0 0 0-15.1 15.1v30.24h30.2a15.2 15.2 0 0 0 15.14-15.1V11.33H26.43z"/><path d="M50 35a17 17 0 1 1-34 0 17 17 0 0 1 34 0zM27.33 46.7v-3.76h3.29V27.06h-3.45V23.3h8.58v19.64h3.08v3.76h-11.5z"/></g></svg>