<svg xmlns="http://www.w3.org/2000/svg" width="120.1" height="130.2"><linearGradient id="a" x1="31.8" x2="110.2" y1="120.6" y2="73.2" gradientUnits="userSpaceOnUse"><stop offset="0" stop-color="#fcee39"/><stop offset="1" stop-color="#f37b3d"/></linearGradient><path fill="url(#a)" d="M118.6 71.8a4.7 4.7 0 0 0-6.2-7l-83.8 45.9a10 10 0 0 0-1.1 18c3.4 2 7.5 1.8 10.7-.2l.7-.5 78-54.8c.4-.3 1.5-1.1 1.7-1.4z"/><linearGradient id="b" x1="48.4" x2="119.9" y1="6.9" y2="69.6" gradientUnits="userSpaceOnUse"><stop offset="0" stop-color="#ef5a6b"/><stop offset=".6" stop-color="#f26f4e"/><stop offset="1" stop-color="#f37b3d"/></linearGradient><path fill="url(#b)" d="M118.8 65.1L55 2.5a7.7 7.7 0 0 0-13.4 5.2c0 2.1.8 3.9 2.1 5.3l1.2 1 67.4 57.7c.8.7 1.8 1.2 3 1.3 2.6.1 4.7-1.8 4.9-4.4a5 5 0 0 0-1.4-3.5z"/><linearGradient id="c" x1="52.9" x2="10.5" y1="63.6" y2="37.2" gradientUnits="userSpaceOnUse"><stop offset="0" stop-color="#7c59a4"/><stop offset=".4" stop-color="#af4c92"/><stop offset=".8" stop-color="#dc4183"/><stop offset="1" stop-color="#ed3d7d"/></linearGradient><path fill="url(#c)" d="M57.1 59.5L16.9 28l-1.8-.9a11.2 11.2 0 0 0-9.8 20c.7.4 1.3.7 2 .9l45.4 18.8a4.3 4.3 0 0 0 4.4-7.3z"/><linearGradient id="d" x1="52.2" x2="10.8" y1="3.7" y2="37.9" gradientUnits="userSpaceOnUse"><stop offset="0" stop-color="#ef5a6b"/><stop offset=".4" stop-color="#ee4e72"/><stop offset="1" stop-color="#ed3d7d"/></linearGradient><path fill="url(#d)" d="M49.3 0c-1.7 0-3.3.6-4.6 1.5L4.9 28.3l-.2.2h-.1A11.1 11.1 0 0 0 7.3 48a11 11 0 0 0 10.4-1.4c.7-.5 1.3-1 1.8-1.6l34.6-31.2c1.8-1.4 3-3.6 3-6.1 0-4.2-3.5-7.7-7.8-7.7z"/><path d="M34.6 37.4h51v51h-51z"/><path fill="#fff" d="M39 78.8h19.1V82H39z"/><g fill="#fff"><path d="M38.8 50.8l1.5-1.4c.4.5.8.8 1.3.8.6 0 .9-.4.9-1.2v-5.3h2.3V49c0 1-.3 1.8-.8 2.3-.5.5-1.3.8-2.3.8a3 3 0 0 1-2.9-1.3zM45.3 43.8H52v1.9h-4.4V47h4v1.8h-4v1.3h4.5v2h-6.7l-.1-8.3zM55 45.8h-2.5v-2h7.3v2h-2.5v6.3H55v-6.3zM39 54h4.3c1 0 1.8.3 2.3.7.3.3.5.8.5 1.4 0 1-.5 1.5-1.3 1.9 1 .3 1.6.9 1.6 2 0 1.4-1.2 2.3-3.1 2.3H39V54zm4.8 2.6c0-.5-.4-.7-1-.7h-1.5v1.5h1.4c.7-.1 1.1-.3 1.1-.8zM43 59h-1.8v1.5H43c.7 0 1.1-.3 1.1-.8s-.4-.7-1.1-.7zM46.8 54h3.9c1.3 0 2.1.3 2.7.9.5.5.7 1.1.7 1.9 0 1.3-.7 2.1-1.7 2.6l2 2.9h-2.6l-1.7-2.5h-1v2.5h-2.3V54zm3.8 4c.8 0 1.2-.4 1.2-1 0-.7-.5-1-1.2-1h-1.5v2h1.5z"/><path d="M56.8 54H59l3.5 8.4H60l-.6-1.5h-3.2l-.6 1.5h-2.4l3.6-8.4zm2 5l-.9-2.3L57 59h1.8zM62.8 54h2.3v8.3h-2.3V54zM65.7 54h2.1l3.4 4.4V54h2.3v8.3h-2L68 57.8v4.6h-2.3V54zM73.7 61.1l1.3-1.5a4 4 0 0 0 2.7 1c.6 0 1-.2 1-.6 0-.4-.3-.5-1.4-.8-1.8-.4-3.1-.9-3.1-2.6 0-1.5 1.2-2.7 3.2-2.7 1.4 0 2.5.4 3.4 1.1l-1.2 1.6c-.8-.5-1.6-.8-2.3-.8-.6 0-.8.2-.8.5 0 .4.3.5 1.4.8 1.9.4 3.1 1 3.1 2.6 0 1.7-1.3 2.7-3.4 2.7-1.5.1-2.9-.4-3.9-1.3z"/></g></svg>