<?xml version="1.0" encoding="utf-8"?>
<!-- Generator: Adobe Illustrator 22.1.0, SVG Export Plug-In . SVG Version: 6.00 Build 0)  -->
<svg version="1.1" id="Слой_1" xmlns="http://www.w3.org/2000/svg" xmlns:xlink="http://www.w3.org/1999/xlink" x="0px" y="0px"
	 viewBox="0 0 160.8 65.5" style="enable-background:new 0 0 160.8 65.5;" xml:space="preserve">
<g>
	<path d="M57.1,36.2c-0.4-0.4-1-0.5-1.6-0.3l-2.9,1.2V21.5c0-0.5-0.2-0.9-0.6-1.2c-0.4-0.3-0.9-0.3-1.3-0.1l-2.4,1L47.8,21L43,9
		c-0.1-0.4-0.4-0.6-0.8-0.8c-0.4-0.1-0.7-0.1-1.1,0l-2.3,1l-8.9-8.8C29.6,0.1,29.2,0,28.8,0c-0.4,0-0.8,0.1-1.1,0.4l-8.9,8.8l-2.3-1
		c-0.4-0.1-0.7-0.1-1.1,0C15,8.4,14.7,8.6,14.6,9L9.7,21l-0.4,0.2l-2.4-1c-0.4-0.2-0.9-0.1-1.3,0.1c-0.4,0.3-0.6,0.7-0.6,1.2v15.5
		L2,35.9c-0.5-0.2-1.2-0.1-1.6,0.3c-0.4,0.4-0.5,1-0.3,1.6l8.1,19c0.2,0.4,0.4,0.6,0.8,0.8l19.2,7.9c0,0,0,0,0.1,0
		c0.2,0.1,0.3,0.1,0.5,0.1s0.3,0,0.5-0.1c0,0,0,0,0.1,0l19.2-7.9c0,0,0,0,0.1,0v0h0c0.3-0.1,0.6-0.4,0.7-0.7c0,0,0,0,0,0l8.1-19
		C57.6,37.2,57.5,36.6,57.1,36.2z M49.8,37.7l-17.2-7.1l17.2-7V37.7z M44.1,19.5l-11.6-4.7l8.3-3.4L44.1,19.5z M28.8,3.3l7.1,7
		l-7.1,2.9l-7.1-2.9L28.8,3.3z M16.7,11.4l8.3,3.4l-11.6,4.7L16.7,11.4z M28.8,16.3l15.7,6.4l-15.7,6.4l-15.7-6.4L28.8,16.3z
		 M7.8,23.7l17.2,7L7.8,37.7V23.7z M28.8,32.2l17.8,7.3l-17.8,7.3l-17.8-7.3L28.8,32.2z M4.1,39.8L25,48.3l-14.7,6L4.1,39.8z
		 M28.8,62.5l-15.4-6.3l15.4-6.3l15.4,6.3L28.8,62.5z M47.2,54.3l-14.7-6l20.9-8.5L47.2,54.3z"/>
	<g>
		<path d="M72,18.9h-5.5v-1.7h13v1.7h-5.5v14.8H72V18.9z"/>
		<path d="M78.7,30.1c0-2.6,2.1-4,5.2-4c1.6,0,2.6,0.2,3.7,0.5v-0.4c0-2.2-1.3-3.3-3.6-3.3c-1.4,0-2.6,0.4-3.7,0.9l-0.5-1.5
			c1.3-0.6,2.6-1,4.4-1c1.7,0,3.1,0.5,3.9,1.3c0.8,0.8,1.3,2,1.3,3.6v7.4h-1.8v-1.8C86.8,33,85.4,34,83.2,34
			C80.9,34,78.7,32.7,78.7,30.1z M87.6,29.2v-1.1c-0.9-0.3-2.1-0.5-3.6-0.5c-2.3,0-3.6,1-3.6,2.5c0,1.5,1.4,2.4,3.1,2.4
			C85.8,32.5,87.6,31.2,87.6,29.2z"/>
		<path d="M93.3,16.9h2.1v2h-2.1V16.9z M93.4,21.5h1.8v12.2h-1.8V21.5z"/>
		<path d="M99.3,35.8l0.8-1.4c1.4,1,2.9,1.6,4.7,1.6c2.7,0,4.4-1.5,4.4-4.3v-1.4c-1.1,1.4-2.5,2.6-4.8,2.6c-2.9,0-5.7-2.2-5.7-5.8
			s2.8-5.8,5.7-5.8c2.3,0,3.8,1.1,4.8,2.5v-2.2h1.8v10.1c0,1.9-0.6,3.3-1.6,4.3c-1.1,1.1-2.7,1.6-4.6,1.6
			C102.8,37.5,100.9,37,99.3,35.8z M109.3,27c0-2.5-2.2-4.1-4.5-4.1c-2.3,0-4.2,1.6-4.2,4.1c0,2.5,2,4.1,4.2,4.1
			C107.1,31.2,109.3,29.5,109.3,27z"/>
		<path d="M114.1,30.1c0-2.6,2.1-4,5.2-4c1.6,0,2.6,0.2,3.7,0.5v-0.4c0-2.2-1.3-3.3-3.6-3.3c-1.4,0-2.6,0.4-3.7,0.9l-0.5-1.5
			c1.3-0.6,2.6-1,4.4-1c1.7,0,3.1,0.5,3.9,1.3c0.8,0.8,1.3,2,1.3,3.6v7.4h-1.8v-1.8c-0.8,1.1-2.2,2.1-4.4,2.1
			C116.4,34,114.1,32.7,114.1,30.1z M123.1,29.2v-1.1c-0.9-0.3-2.1-0.5-3.6-0.5c-2.3,0-3.6,1-3.6,2.5c0,1.5,1.4,2.4,3.1,2.4
			C121.3,32.5,123.1,31.2,123.1,29.2z"/>
	</g>
	<g>
		<path d="M66.4,53.3l1.2-1.4c1.7,1.6,3.4,2.3,5.7,2.3c2.2,0,3.7-1.2,3.7-2.9c0-1.5-0.8-2.4-4.3-3.1c-3.8-0.8-5.5-2.1-5.5-4.8
			c0-2.6,2.3-4.5,5.4-4.5c2.4,0,4.1,0.7,5.8,2l-1.1,1.4c-1.5-1.2-3.1-1.8-4.8-1.8c-2.1,0-3.5,1.2-3.5,2.7c0,1.6,0.8,2.4,4.5,3.2
			c3.7,0.8,5.4,2.1,5.4,4.7c0,2.8-2.4,4.7-5.6,4.7C70.6,56,68.4,55.1,66.4,53.3z"/>
		<path d="M81.2,59l0.6-1.4c0.6,0.3,1.1,0.4,1.9,0.4c1.1,0,1.8-0.6,2.5-2.3l-5.5-12.1h2l4.4,10.2l3.9-10.2H93l-5.1,12.6
			c-1,2.5-2.2,3.4-4.1,3.4C82.8,59.6,82.1,59.4,81.2,59z"/>
		<path d="M94.4,54.2l0.9-1.3c1.3,1,2.8,1.6,4.2,1.6c1.5,0,2.5-0.8,2.5-2c0-1.2-1.4-1.7-3-2.1c-1.9-0.5-4-1.2-4-3.5
			c0-2.1,1.7-3.5,4.1-3.5c1.5,0,3.1,0.5,4.4,1.3l-0.8,1.4c-1.1-0.7-2.4-1.2-3.6-1.2c-1.4,0-2.4,0.8-2.4,1.8c0,1.2,1.5,1.6,3.1,2.1
			c1.9,0.6,3.9,1.3,3.9,3.5c0,2.3-1.9,3.7-4.3,3.7C97.7,56,95.8,55.3,94.4,54.2z"/>
		<path d="M107.5,52.5v-7.4h-1.7v-1.6h1.7v-3.7h1.8v3.7h3.9v1.6h-3.9v7.1c0,1.5,0.8,2,2.1,2c0.6,0,1.1-0.1,1.8-0.4v1.6
			c-0.6,0.3-1.3,0.5-2.2,0.5C109,55.9,107.5,55,107.5,52.5z"/>
		<path d="M121.4,54.4c1.7,0,2.9-0.7,3.8-1.7l1.1,1c-1.2,1.4-2.7,2.3-5,2.3c-3.3,0-6.1-2.6-6.1-6.4c0-3.5,2.5-6.4,5.8-6.4
			c3.6,0,5.7,2.9,5.7,6.5c0,0.2,0,0.4,0,0.6h-9.7C117.4,52.9,119.3,54.4,121.4,54.4z M125,48.9c-0.2-2.2-1.5-4.1-3.9-4.1
			c-2.1,0-3.7,1.7-4,4.1H125z"/>
		<path d="M130,43.5h1.8v2.1c0.8-1.2,1.9-2.3,3.9-2.3c2,0,3.3,1.1,3.9,2.4c0.9-1.3,2.2-2.4,4.3-2.4c2.8,0,4.5,1.9,4.5,4.9v7.5h-1.8
			v-7.1c0-2.4-1.2-3.7-3.2-3.7c-1.8,0-3.4,1.4-3.4,3.8v7h-1.8v-7.2c0-2.3-1.2-3.6-3.1-3.6c-1.9,0-3.4,1.6-3.4,3.8v7H130V43.5z"/>
		<path d="M151.4,54.2l0.9-1.3c1.3,1,2.8,1.6,4.2,1.6c1.5,0,2.5-0.8,2.5-2c0-1.2-1.4-1.7-3-2.1c-1.9-0.5-4-1.2-4-3.5
			c0-2.1,1.7-3.5,4.1-3.5c1.5,0,3.1,0.5,4.4,1.3l-0.8,1.4c-1.1-0.7-2.4-1.2-3.6-1.2c-1.4,0-2.4,0.8-2.4,1.8c0,1.2,1.5,1.6,3.1,2.1
			c1.9,0.6,3.9,1.3,3.9,3.5c0,2.3-1.9,3.7-4.3,3.7C154.7,56,152.8,55.3,151.4,54.2z"/>
	</g>
</g>
</svg>
