<svg xmlns="http://www.w3.org/2000/svg" width="165" height="52"><g fill="none" fill-rule="evenodd"><path fill="#263238" fill-rule="nonzero" d="M6.72 52c-1.68 0-2.8-1.14-3.18-3.04L.2 35.3C0 34.92 0 34.35 0 33.97c0-.57.19-1.14.75-1.52.37-.37.93-.56 1.68-.56 1.3 0 2.05.56 2.23 1.9L7.28 46.3l3.35-12.53c.38-1.33 1.31-1.9 2.62-1.9 1.49 0 2.42.57 2.6 1.9l3.55 12.53 2.43-12.15c.37-1.52 1.12-2.27 2.42-2.27.75 0 1.3.19 1.68.56.37.38.75.95.75 1.52 0 .38-.19.95-.19 1.33l-3.73 13.66c-.12.83-.44 1.6-.93 2.28-.71.5-1.56.77-2.43.76-1.49 0-2.61-.95-3.17-2.47l-2.98-11.38-2.99 11C9.7 51.05 8.58 52 6.72 52zm35.26-20.11c1.67 0 2.8.75 3.35 2.46l5.41 14.23c.2.57.38.95.38 1.33 0 .57-.38 1.14-.75 1.52-.49.36-1.07.56-1.68.57-1.12 0-2.05-.76-2.61-2.09l-.75-2.46h-7.27l-.94 2.46C36.75 51.24 36.01 52 34.9 52c-.75 0-1.31-.19-1.68-.57a2.18 2.18 0 0 1-.56-1.52c0-.57 0-.95.18-1.33l5.41-13.85c.75-1.9 2.06-2.84 3.74-2.84zm-.2 4.74l-2.42 7.02h4.67l-2.24-7.02zm17.55-1.52c0-2.09.74-3.22 2.42-3.22 1.5 0 2.24 1.13 2.24 3.22v12.53h4.1c2.24 0 3.36.56 3.36 2.08 0 1.33-1.12 1.9-3.36 1.9h-5.6c-1.11 0-2.05-.19-2.42-.57-.56-.38-.74-1.14-.74-2.09V35.11zm24.8 13.66c0 2.1-.74 3.23-2.42 3.23-1.49 0-2.24-1.14-2.24-3.23V35.11c0-2.09.75-3.22 2.24-3.22 1.68 0 2.43 1.13 2.43 3.22v13.66zm9.34-6.83c0-2.84.93-5.31 2.6-7.2 1.87-1.9 4.3-2.85 7.28-2.85 3.17 0 5.6.94 7.47 2.84 1.86 1.9 2.6 4.18 2.6 7.21 0 2.85-.74 5.32-2.6 7.21-1.87 1.9-4.3 2.85-7.47 2.85-2.98 0-5.4-.95-7.27-2.85a10.66 10.66 0 0 1-2.61-7.2zm5.03 0c0 1.71.38 3.04 1.12 3.99a4.33 4.33 0 0 0 3.73 1.9c1.68 0 2.99-.57 3.92-1.9.75-.95 1.12-2.28 1.12-3.99 0-1.7-.37-3.03-1.12-3.98a4.44 4.44 0 0 0-3.92-1.9c-1.68 0-2.8.57-3.73 1.9-.74.95-1.12 2.27-1.12 3.98zm26.87-5.69c-1.68 0-2.8 0-3.17-.19-1.31-.19-2.06-.76-2.06-1.9 0-1.32 1.12-2.08 3.36-2.08h8.4c2.24 0 3.36.76 3.36 2.08 0 1.14-.75 1.71-1.87 1.9-.56.2-1.5.2-3.36.2v12.51c0 2.1-.75 3.23-2.24 3.23-1.68 0-2.42-1.14-2.42-3.23V36.25z"/><path fill="#082679" d="M129.48 17.58c0-1.32.78-2.5 2-3.01 1.2-.5 2.59-.23 3.51.7.93.94 1.2 2.34.7 3.55-.5 1.22-1.68 2.01-2.99 2h-3.22v-3.24zm9.15.03a5.98 5.98 0 0 0-5.94-5.98c-.96 0-1.91.24-2.77.7a6.05 6.05 0 0 1 7.93-3.24 6.13 6.13 0 0 1 3.76 5.66v6.13l-3.94-.02c.62-.97.96-2.1.96-3.25zm5.62 3.27v-6.13c0-3.3-1.82-6.32-4.74-7.83a8.66 8.66 0 0 0-9.07.68 9 9 0 0 1 11.49-4.23 9.1 9.1 0 0 1 5.58 8.4l.01 10.65a8.77 8.77 0 0 0 8.73 8.79c1.82 0 3.6-.58 5.08-1.65a9 9 0 0 1-11.48 4.23 9.11 9.11 0 0 1-5.6-8.4v-4.51zm5.92-4.6l3.94.02a6 6 0 0 0 .58 7.3 5.89 5.89 0 0 0 7.16 1.23 6.05 6.05 0 0 1-7.92 3.25 6.13 6.13 0 0 1-3.76-5.66v-6.13zm-.02-2.66v-1.85c0-6.5-5.23-11.77-11.68-11.77a11.73 11.73 0 0 0-11.68 11.77v9.46c0 1.81 1.02 2.32 2.5 2.32h12.33v1.84c0 6.5 5.23 11.77 11.68 11.77 6.45 0 11.68-5.27 11.68-11.77V16.01c0-1.14-.65-2.4-2.46-2.4h-12.37zm8.92 9.22a3.24 3.24 0 0 1-3.23-3.25c0-1.8 1.44-3.26 3.23-3.26h3.22v3.25c0 1.8-1.44 3.26-3.22 3.26z"/></g></svg>