<svg xmlns="http://www.w3.org/2000/svg" width="158" height="16" fill="none"><g fill="#262626"><path d="M6.81 12.92c-.23-.38-.51-.78-.83-1.22-.31-.44-.66-.88-1.04-1.31A17.87 17.87 0 0 0 2.6 8.04v4.88H0V1.38h2.6v4.36a80.2 80.2 0 0 0 2.03-2.21l1.91-2.15h3.08A82.35 82.35 0 0 1 4.75 6.7c.92.77 1.8 1.68 2.66 2.73.86 1.06 1.7 2.22 2.48 3.5H6.81zM16.5 6.36c-.23-.06-.49-.11-.79-.17a4.45 4.45 0 0 0-2.01.04v6.69H11.2v-8.3c.45-.15.97-.3 1.57-.42A8.84 8.84 0 0 1 15.29 4c.2.01.38.04.57.07a5.04 5.04 0 0 1 1.05.23l-.42 2.05zM21.42 11.19a14.03 14.03 0 0 0 1.23-.07V9.24a4.59 4.59 0 0 0-1-.1c-.23 0-.45.02-.66.05-.2.02-.38.07-.53.15a.93.93 0 0 0-.37.32.88.88 0 0 0-.13.5c0 .38.13.66.38.81.27.15.63.22 1.08.22zm-.2-7.26c.74 0 1.35.08 1.83.25a2.59 2.59 0 0 1 1.8 1.85c.12.44.19.93.19 1.48v5.16c-.36.08-.85.17-1.49.27-.63.1-1.4.16-2.3.16a7.4 7.4 0 0 1-1.54-.15c-.46-.1-.85-.26-1.18-.48a2.3 2.3 0 0 1-.77-.9 3.07 3.07 0 0 1-.27-1.35c0-.5.1-.94.3-1.3.21-.35.5-.63.84-.85.34-.2.73-.36 1.18-.44a6.28 6.28 0 0 1 2.23-.1c.25.02.46.05.61.1v-.24c0-.42-.12-.76-.38-1.01-.25-.26-.7-.39-1.33-.39a7.79 7.79 0 0 0-2.31.35l-.32-2 .53-.13a8.73 8.73 0 0 1 1.52-.23c.29-.03.57-.05.86-.05zM29.8 11.14c.45 0 .77-.05.96-.13.19-.1.28-.27.28-.52 0-.2-.12-.37-.36-.52a6.4 6.4 0 0 0-1.12-.51c-.39-.15-.74-.3-1.07-.45a3.28 3.28 0 0 1-.8-.55c-.22-.22-.39-.48-.51-.78-.12-.3-.18-.67-.18-1.09 0-.82.3-1.47.91-1.94a3.98 3.98 0 0 1 2.52-.72c.53 0 1.04.05 1.53.15.49.09.87.19 1.16.3L32.7 6.3a8.9 8.9 0 0 0-.95-.27 5 5 0 0 0-1.13-.11c-.78 0-1.17.21-1.17.65 0 .1.02.19.05.26.04.08.1.16.2.24a4.9 4.9 0 0 0 1.07.5c.54.2 1 .4 1.35.6.35.18.63.4.83.63.21.22.35.47.43.75.1.27.14.6.14.96 0 .87-.33 1.52-.99 1.97a4.8 4.8 0 0 1-2.74.66 8.02 8.02 0 0 1-3.02-.53l.42-2.01a6.7 6.7 0 0 0 2.61.53zM35.36 4.46c.42-.12.97-.23 1.63-.33.67-.11 1.37-.17 2.1-.17.74 0 1.36.1 1.85.3.5.2.9.46 1.18.82.29.35.5.78.62 1.26.12.5.18 1.04.18 1.64v4.94h-2.48V8.27c0-.8-.1-1.36-.32-1.7-.2-.33-.6-.5-1.18-.5-.18 0-.37.02-.57.04l-.53.05v6.76h-2.48V4.46zM53.36 8.52c0 .7-.1 1.33-.3 1.9a3.93 3.93 0 0 1-2.23 2.4c-.53.22-1.12.33-1.77.33-.64 0-1.23-.1-1.77-.33a3.97 3.97 0 0 1-2.23-2.4 5.5 5.5 0 0 1-.31-1.9c0-.68.1-1.31.31-1.88.23-.56.53-1.05.9-1.45a4.15 4.15 0 0 1 3.1-1.26c.63 0 1.21.11 1.73.33a3.93 3.93 0 0 1 2.25 2.38c.21.57.32 1.2.32 1.88zm-2.54 0c0-.76-.15-1.36-.46-1.8-.3-.44-.73-.66-1.3-.66-.57 0-1 .22-1.32.67a3.04 3.04 0 0 0-.46 1.8c0 .76.15 1.37.46 1.83.32.44.75.66 1.32.66.57 0 1-.22 1.3-.66a3.2 3.2 0 0 0 .46-1.84zM57.4 8.47c0 .77.16 1.39.5 1.85.35.47.86.7 1.54.7l.62-.01.46-.07V6.43a2.84 2.84 0 0 0-1.37-.35c-1.17 0-1.76.8-1.76 2.4zm5.6 4.17a12.37 12.37 0 0 1-1.68.35 12.9 12.9 0 0 1-1.9.15 5.5 5.5 0 0 1-1.93-.32 3.93 3.93 0 0 1-1.43-.9c-.39-.4-.69-.88-.9-1.43a6.39 6.39 0 0 1-.03-3.81c.17-.58.43-1.07.76-1.47.34-.4.74-.7 1.22-.91a4.16 4.16 0 0 1 2.58-.22c.28.07.55.16.83.28V.4L63 0v12.64zM68.67 11.19a14.03 14.03 0 0 0 1.23-.07V9.24a4.58 4.58 0 0 0-1-.1c-.23 0-.45.02-.66.05-.2.02-.38.07-.53.15a.93.93 0 0 0-.37.32.88.88 0 0 0-.13.5c0 .38.12.66.38.81.27.15.63.22 1.08.22zm-.2-7.26c.73 0 1.34.08 1.83.25a2.59 2.59 0 0 1 1.8 1.85c.12.44.18.93.18 1.48v5.16c-.35.08-.84.17-1.48.27-.63.1-1.4.16-2.3.16a7.4 7.4 0 0 1-1.54-.15c-.46-.1-.85-.26-1.19-.48a2.3 2.3 0 0 1-.76-.9 3.08 3.08 0 0 1-.27-1.35c0-.5.1-.94.3-1.3.21-.35.49-.63.83-.85.35-.2.74-.36 1.19-.44a6.28 6.28 0 0 1 2.23-.1c.25.02.46.05.61.1v-.24c0-.42-.12-.76-.38-1.01-.25-.26-.7-.39-1.33-.39a7.79 7.79 0 0 0-2.32.35l-.31-2 .53-.13a8.73 8.73 0 0 1 1.52-.23c.28-.03.57-.05.86-.05zM79.8 6.36c-.22-.06-.48-.11-.78-.17a4.44 4.44 0 0 0-2.01.04v6.69h-2.48v-8.3c.44-.15.96-.3 1.56-.42A8.84 8.84 0 0 1 78.61 4c.19.01.37.04.56.07a5.04 5.04 0 0 1 1.05.23l-.41 2.05zM88.32 10.8l.41.04h.58c1.3 0 2.26-.33 2.88-.98.64-.66.95-1.56.95-2.72 0-1.2-.3-2.12-.9-2.74-.6-.63-1.54-.94-2.84-.94a9.36 9.36 0 0 0-1.08.05v7.3zm7.5-3.66c0 1-.15 1.87-.46 2.62a4.8 4.8 0 0 1-1.33 1.84c-.57.5-1.26.86-2.09 1.1-.82.25-1.74.37-2.76.37a23.26 23.26 0 0 1-3.46-.3V1.53a25.4 25.4 0 0 1 3.55-.28c.98 0 1.88.11 2.67.33.82.22 1.5.57 2.09 1.05a4.66 4.66 0 0 1 1.33 1.83c.3.75.46 1.64.46 2.68zM97.41 8.6c0-.77.12-1.45.35-2.02.24-.6.56-1.08.95-1.47a3.94 3.94 0 0 1 2.9-1.18c1.24 0 2.22.38 2.94 1.15.73.75 1.09 1.87 1.09 3.34a7.9 7.9 0 0 1-.05.94h-5.63c.05.5.3.91.71 1.21.43.3 1 .45 1.7.45.46 0 .9-.04 1.33-.11.45-.1.8-.2 1.09-.32l.33 2.01a5.83 5.83 0 0 1-1.28.37 8.93 8.93 0 0 1-1.8.18c-.79 0-1.48-.11-2.07-.35a4.16 4.16 0 0 1-1.44-.95c-.38-.4-.66-.89-.85-1.44a5.87 5.87 0 0 1-.27-1.8zm5.83-.94a2.35 2.35 0 0 0-.12-.62c-.05-.2-.15-.37-.28-.53a1.4 1.4 0 0 0-.48-.38c-.2-.1-.43-.15-.72-.15a1.58 1.58 0 0 0-1.22.51c-.13.16-.23.34-.31.55-.07.2-.12.4-.15.62h3.28zM109.93 12.92a45.65 45.65 0 0 1-1.73-3.9 63.78 63.78 0 0 1-1.65-4.86h2.63A57.12 57.12 0 0 0 111 9.94a76.89 76.89 0 0 0 1.81-5.78h2.56a58.4 58.4 0 0 1-3.38 8.76h-2.06zM123.47 10.8l.41.04h.59c1.3 0 2.25-.33 2.88-.98.63-.66.95-1.56.95-2.72 0-1.2-.3-2.12-.9-2.74-.6-.63-1.55-.94-2.85-.94a9.38 9.38 0 0 0-1.08.05v7.3zm7.5-3.66c0 1-.15 1.87-.46 2.62a4.8 4.8 0 0 1-1.33 1.84c-.57.5-1.26.86-2.08 1.1-.82.25-1.75.37-2.77.37a23.24 23.24 0 0 1-3.46-.3V1.53a25.4 25.4 0 0 1 3.55-.28c.98 0 1.88.11 2.68.33.8.22 1.5.57 2.08 1.05a4.67 4.67 0 0 1 1.33 1.83c.31.75.47 1.64.47 2.68zM136.33 11.19a14.02 14.02 0 0 0 1.23-.07V9.24a4.6 4.6 0 0 0-1-.1c-.23 0-.46.02-.67.05-.2.02-.37.07-.53.15a.93.93 0 0 0-.37.32.88.88 0 0 0-.13.5c0 .38.13.66.38.81.27.15.63.22 1.09.22zm-.2-7.26c.73 0 1.34.08 1.83.25a2.6 2.6 0 0 1 1.8 1.85c.12.44.18.93.18 1.48v5.16c-.36.08-.85.17-1.48.27-.64.1-1.4.16-2.3.16a7.4 7.4 0 0 1-1.55-.15c-.45-.1-.85-.26-1.18-.48a2.31 2.31 0 0 1-.77-.9 3.07 3.07 0 0 1-.26-1.35c0-.5.1-.94.3-1.3.2-.35.49-.63.83-.85.34-.2.74-.36 1.18-.44a6.27 6.27 0 0 1 2.23-.1c.26.02.46.05.62.1v-.24c0-.42-.13-.76-.38-1.01-.26-.26-.7-.39-1.34-.39a7.8 7.8 0 0 0-2.31.35l-.32-2 .53-.13a8.74 8.74 0 0 1 1.51-.23c.3-.03.59-.05.88-.05zM149.75 4.16a77.13 77.13 0 0 1-1.57 4.75 57.05 57.05 0 0 1-1.78 4.3c-.23.5-.47.91-.7 1.26-.23.35-.49.64-.77.86-.27.24-.59.4-.94.5a4.75 4.75 0 0 1-3.1-.18l.43-1.98a4.25 4.25 0 0 0 1.32.23c.44 0 .78-.12 1.01-.36.25-.24.45-.56.62-.99a47.18 47.18 0 0 1-3.3-8.4h2.63c.11.45.24.92.39 1.43a225.38 225.38 0 0 0 .98 3.03l.5 1.33a36.63 36.63 0 0 0 .9-2.83 55.8 55.8 0 0 0 .81-2.95h2.57zM153.59 11.14c.45 0 .78-.05.97-.13.18-.1.28-.27.28-.52 0-.2-.12-.37-.37-.52a6.41 6.41 0 0 0-1.11-.51c-.4-.15-.75-.3-1.07-.45a3.27 3.27 0 0 1-.8-.55c-.22-.22-.4-.48-.51-.78-.13-.3-.19-.67-.19-1.09 0-.82.3-1.47.92-1.94a3.99 3.99 0 0 1 2.51-.72c.53 0 1.05.05 1.53.15.5.09.88.19 1.17.3l-.43 1.93c-.3-.1-.6-.19-.95-.27a5 5 0 0 0-1.13-.11c-.78 0-1.17.21-1.17.65 0 .1.02.19.05.26.03.08.1.16.2.24a4.98 4.98 0 0 0 1.06.5c.55.2 1 .4 1.35.6.36.18.64.4.84.63.2.22.35.47.43.75.09.27.13.6.13.96 0 .87-.33 1.52-.98 1.97a4.8 4.8 0 0 1-2.75.66 8.03 8.03 0 0 1-3.01-.53l.42-2.01a6.7 6.7 0 0 0 2.61.53z"/></g></svg>
