<svg width="24" height="24" viewBox="0 0 24 24" fill="none" xmlns="http://www.w3.org/2000/svg">
<path d="M13.586 12.18C13.586 11.874 13.73 11.604 13.982 11.442C15.08 10.668 15.836 9.192 15.836 7.5C15.836 5.016 14.198 3 12.2 3C10.202 3 8.564 5.016 8.564 7.5C8.564 9.192 9.32 10.668 10.436 11.442C10.688 11.604 10.832 11.892 10.832 12.18C10.832 12.612 10.526 12.99 10.094 13.062C7.142 13.584 5 15.114 5 16.95C5 19.182 8.222 21 12.2 21C16.178 21 19.4 19.182 19.4 16.95C19.4 15.132 17.258 13.584 14.324 13.08C13.892 12.99 13.586 12.612 13.586 12.18Z" fill="#262626"/>
</svg>
